<svg width="266" height="69" viewBox="0 0 266 69" fill="none" xmlns="http://www.w3.org/2000/svg">
<path d="M11.304 32.496C10.3013 32.5387 9.33067 32.528 8.392 32.464C7.45333 32.3787 6.48267 32.24 5.48 32.048C4.43467 31.8133 3.53867 31.3227 2.792 30.576C2.06667 29.808 1.704 28.7947 1.704 27.536C1.704 26.7253 1.85333 25.9787 2.152 25.296C2.45067 24.6133 2.78133 24.016 3.144 23.504C3.80533 22.5867 4.53067 21.6373 5.32 20.656C6.10933 19.6533 6.93067 18.6507 7.784 17.648C8.63733 16.624 9.50133 15.6213 10.376 14.64C11.2507 13.6373 12.1147 12.6773 12.968 11.76C13.5867 11.0987 14.3653 10.5333 15.304 10.064C16.264 9.59467 17.3093 9.36 18.44 9.36C19.7413 9.36 20.7867 9.744 21.576 10.512C22.3653 11.28 22.856 12.336 23.048 13.68C23.2187 14.96 23.1653 16.0587 22.888 16.976C22.632 17.8933 22.216 18.704 21.64 19.408C19.8267 19.088 18.184 19.184 16.712 19.696C15.2613 20.1867 13.96 20.9973 12.808 22.128C12.7227 22.2133 12.6907 22.3093 12.712 22.416C12.7333 22.5013 12.776 22.5867 12.84 22.672C12.9253 22.736 13.0213 22.7787 13.128 22.8C13.2347 22.8213 13.3413 22.7893 13.448 22.704C14.3013 21.8933 15.2507 21.2533 16.296 20.784C17.3413 20.3147 18.4293 20.08 19.56 20.08C20.6053 20.08 21.5013 20.2613 22.248 20.624C22.9947 20.9653 23.6027 21.4133 24.072 21.968C24.5627 22.5227 24.9147 23.1413 25.128 23.824C25.3627 24.5067 25.48 25.1893 25.48 25.872C25.48 26.6827 25.32 27.4293 25 28.112C24.7013 28.7733 24.2853 29.36 23.752 29.872C23.2187 30.384 22.6107 30.8 21.928 31.12C21.2453 31.4187 20.5307 31.6107 19.784 31.696C19.6133 31.7173 19.4853 31.76 19.4 31.824C19.336 31.888 19.304 31.9627 19.304 32.048C19.3253 32.1333 19.3787 32.208 19.464 32.272C19.5493 32.3147 19.6667 32.336 19.816 32.336C20.2427 32.2933 20.7227 32.208 21.256 32.08C21.8107 31.952 22.376 31.7387 22.952 31.44C23.1653 32.144 23.176 32.848 22.984 33.552C22.8133 34.2347 22.472 34.8427 21.96 35.376C21.4693 35.9093 20.8187 36.336 20.008 36.656C19.1973 36.9973 18.2693 37.168 17.224 37.168C16.1573 37.168 15.2187 37.04 14.408 36.784C13.6187 36.528 12.9573 36.176 12.424 35.728C11.912 35.3013 11.5493 34.8107 11.336 34.256C11.144 33.7013 11.1333 33.1147 11.304 32.496ZM37.9108 37.136C36.0121 37.136 34.3481 36.7627 32.9188 36.016C31.4894 35.2907 30.2948 34.2987 29.3348 33.04C28.3961 31.7813 27.6814 30.2987 27.1908 28.592C26.7214 26.8853 26.4868 25.0613 26.4868 23.12C26.4868 21.2 26.7214 19.3973 27.1908 17.712C27.6814 16.0053 28.3961 14.5227 29.3348 13.264C30.2948 12.0053 31.4894 11.0133 32.9188 10.288C34.3481 9.56267 36.0121 9.2 37.9108 9.2C39.8094 9.2 41.4734 9.56267 42.9028 10.288C44.3321 11.0133 45.5161 12.0053 46.4548 13.264C47.4148 14.5227 48.1294 16.0053 48.5988 17.712C49.0681 19.3973 49.3028 21.2 49.3028 23.12C49.3028 25.0613 49.0681 26.8853 48.5988 28.592C48.1294 30.2987 47.4148 31.7813 46.4548 33.04C45.5161 34.2987 44.3321 35.2907 42.9028 36.016C41.4734 36.7627 39.8094 37.136 37.9108 37.136ZM37.3668 28.144C37.4948 28.3787 37.6441 28.5173 37.8148 28.56C37.9854 28.6027 38.1454 28.592 38.2948 28.528C38.4441 28.4427 38.5508 28.3147 38.6148 28.144C38.6788 27.952 38.6468 27.7387 38.5188 27.504C38.1561 26.7787 37.9001 26.0427 37.7508 25.296C37.6228 24.528 37.5588 23.8027 37.5588 23.12C37.5588 22.48 37.6228 21.776 37.7508 21.008C37.9001 20.24 38.1561 19.504 38.5188 18.8C38.6468 18.544 38.6788 18.3307 38.6148 18.16C38.5508 17.968 38.4441 17.84 38.2948 17.776C38.1454 17.6907 37.9854 17.68 37.8148 17.744C37.6441 17.7867 37.4948 17.9147 37.3668 18.128C36.9828 18.8747 36.6948 19.6853 36.5028 20.56C36.3321 21.4133 36.2468 22.2667 36.2468 23.12C36.2468 23.9947 36.3321 24.8693 36.5028 25.744C36.6948 26.5973 36.9828 27.3973 37.3668 28.144ZM60.3978 32.496C59.3951 32.5387 58.4244 32.528 57.4858 32.464C56.5471 32.3787 55.5764 32.24 54.5738 32.048C53.5284 31.8133 52.6324 31.3227 51.8858 30.576C51.1604 29.808 50.7978 28.7947 50.7978 27.536C50.7978 26.7253 50.9471 25.9787 51.2458 25.296C51.5444 24.6133 51.8751 24.016 52.2378 23.504C52.8991 22.5867 53.6244 21.6373 54.4138 20.656C55.2031 19.6533 56.0244 18.6507 56.8778 17.648C57.7311 16.624 58.5951 15.6213 59.4698 14.64C60.3444 13.6373 61.2084 12.6773 62.0618 11.76C62.6804 11.0987 63.4591 10.5333 64.3978 10.064C65.3578 9.59467 66.4031 9.36 67.5338 9.36C68.8351 9.36 69.8804 9.744 70.6698 10.512C71.4591 11.28 71.9498 12.336 72.1418 13.68C72.3124 14.96 72.2591 16.0587 71.9818 16.976C71.7258 17.8933 71.3098 18.704 70.7338 19.408C68.9204 19.088 67.2778 19.184 65.8058 19.696C64.3551 20.1867 63.0538 20.9973 61.9018 22.128C61.8164 22.2133 61.7844 22.3093 61.8058 22.416C61.8271 22.5013 61.8698 22.5867 61.9338 22.672C62.0191 22.736 62.1151 22.7787 62.2218 22.8C62.3284 22.8213 62.4351 22.7893 62.5418 22.704C63.3951 21.8933 64.3444 21.2533 65.3898 20.784C66.4351 20.3147 67.5231 20.08 68.6538 20.08C69.6991 20.08 70.5951 20.2613 71.3418 20.624C72.0884 20.9653 72.6964 21.4133 73.1658 21.968C73.6564 22.5227 74.0084 23.1413 74.2218 23.824C74.4564 24.5067 74.5738 25.1893 74.5738 25.872C74.5738 26.6827 74.4138 27.4293 74.0938 28.112C73.7951 28.7733 73.3791 29.36 72.8458 29.872C72.3124 30.384 71.7044 30.8 71.0218 31.12C70.3391 31.4187 69.6244 31.6107 68.8778 31.696C68.7071 31.7173 68.5791 31.76 68.4938 31.824C68.4298 31.888 68.3978 31.9627 68.3978 32.048C68.4191 32.1333 68.4724 32.208 68.5578 32.272C68.6431 32.3147 68.7604 32.336 68.9097 32.336C69.3364 32.2933 69.8164 32.208 70.3498 32.08C70.9044 31.952 71.4698 31.7387 72.0458 31.44C72.2591 32.144 72.2698 32.848 72.0778 33.552C71.9071 34.2347 71.5658 34.8427 71.0538 35.376C70.5631 35.9093 69.9124 36.336 69.1018 36.656C68.2911 36.9973 67.3631 37.168 66.3178 37.168C65.2511 37.168 64.3124 37.04 63.5018 36.784C62.7124 36.528 62.0511 36.176 61.5178 35.728C61.0058 35.3013 60.6431 34.8107 60.4298 34.256C60.2378 33.7013 60.2271 33.1147 60.3978 32.496ZM92.8755 23.312C92.8755 24.016 92.8542 24.7733 92.8115 25.584C92.7902 26.3733 92.7582 27.1733 92.7155 27.984C92.6728 28.7947 92.6195 29.5947 92.5555 30.384C92.4915 31.1733 92.4275 31.9093 92.3635 32.592C92.2995 33.1893 92.1715 33.744 91.9795 34.256C91.7875 34.7893 91.5102 35.248 91.1475 35.632C90.8062 36.016 90.3795 36.3147 89.8675 36.528C89.3768 36.7627 88.8008 36.88 88.1395 36.88C87.4568 36.88 86.8595 36.7627 86.3475 36.528C85.8568 36.3147 85.4302 36.016 85.0675 35.632C84.7262 35.248 84.4595 34.7893 84.2675 34.256C84.0755 33.744 83.9475 33.1893 83.8835 32.592C83.5635 29.5413 83.4035 26.4053 83.4035 23.184C83.4035 19.9627 83.5635 16.8267 83.8835 13.776C83.9475 13.1787 84.0755 12.624 84.2675 12.112C84.4595 11.6 84.7262 11.152 85.0675 10.768C85.4302 10.384 85.8568 10.0853 86.3475 9.872C86.8595 9.63733 87.4568 9.52 88.1395 9.52C88.9075 9.52 89.5582 9.65867 90.0915 9.936C90.6462 10.2133 91.1048 10.5973 91.4675 11.088C92.1928 12.0267 92.8328 13.0293 93.3875 14.096C93.9635 15.1413 94.5182 16.2187 95.0515 17.328C95.5848 18.416 96.1075 19.5147 96.6195 20.624C97.1528 21.7333 97.7288 22.8 98.3475 23.824C98.4115 23.952 98.4862 24.0373 98.5715 24.08C98.6782 24.1227 98.7635 24.1227 98.8275 24.08C98.9128 24.016 98.9662 23.9307 98.9875 23.824C99.0302 23.7173 99.0088 23.5893 98.9235 23.44C98.5822 22.7573 98.2728 22.16 97.9955 21.648C97.7182 21.1147 97.4088 20.5387 97.0675 19.92C97.1102 18.8533 97.1635 17.7867 97.2275 16.72C97.2915 15.632 97.3662 14.6507 97.4515 13.776C97.5368 13.1787 97.6755 12.624 97.8675 12.112C98.0808 11.6 98.3582 11.152 98.6995 10.768C99.0622 10.384 99.4888 10.0853 99.9795 9.872C100.47 9.63733 101.057 9.52 101.74 9.52C102.401 9.52 102.977 9.63733 103.468 9.872C103.98 10.0853 104.406 10.384 104.748 10.768C105.11 11.152 105.388 11.6 105.58 12.112C105.793 12.624 105.942 13.1787 106.028 13.776C106.326 16.8267 106.476 19.9627 106.476 23.184C106.476 26.4053 106.326 29.5413 106.028 32.592C105.942 33.1893 105.793 33.744 105.58 34.256C105.388 34.7893 105.11 35.248 104.748 35.632C104.406 36.016 103.98 36.3147 103.468 36.528C102.977 36.7627 102.401 36.88 101.74 36.88C100.801 36.88 100.033 36.6667 99.4355 36.24C98.8595 35.8133 98.3902 35.2693 98.0275 34.608C97.6008 33.8827 97.1848 33.04 96.7795 32.08C96.3742 31.12 95.9582 30.128 95.5315 29.104C95.1262 28.08 94.6995 27.0667 94.2515 26.064C93.8035 25.0613 93.3448 24.144 92.8755 23.312ZM108.295 27.344C108.295 25.7867 108.54 24.3573 109.031 23.056C109.543 21.7333 110.247 20.6027 111.143 19.664C112.06 18.7253 113.159 17.9893 114.439 17.456C115.719 16.9227 117.148 16.656 118.727 16.656C120.327 16.656 121.713 16.9653 122.887 17.584C124.06 18.2027 125.031 19.0133 125.799 20.016C126.588 21.0187 127.175 22.16 127.559 23.44C127.943 24.72 128.135 26.0213 128.135 27.344C128.113 28.688 127.868 29.968 127.399 31.184C126.951 32.4 126.311 33.4667 125.479 34.384C124.668 35.3227 123.676 36.0587 122.503 36.592C121.351 37.1467 120.06 37.424 118.631 37.424C117.137 37.424 115.761 37.168 114.503 36.656C113.244 36.144 112.156 35.44 111.239 34.544C110.321 33.648 109.596 32.592 109.063 31.376C108.551 30.1387 108.295 28.7947 108.295 27.344ZM117.255 29.136C117.191 29.264 117.191 29.3813 117.255 29.488C117.319 29.5947 117.415 29.68 117.543 29.744C117.671 29.7867 117.809 29.7973 117.959 29.776C118.129 29.7333 118.268 29.6373 118.375 29.488C118.801 28.848 119.089 28.1227 119.239 27.312C119.388 26.5013 119.473 25.6907 119.495 24.88C119.495 24.688 119.441 24.5493 119.335 24.464C119.228 24.3787 119.1 24.336 118.951 24.336C118.823 24.3147 118.695 24.3467 118.567 24.432C118.46 24.496 118.407 24.592 118.407 24.72C118.343 25.5093 118.225 26.256 118.055 26.96C117.905 27.6427 117.639 28.368 117.255 29.136ZM132.335 26.16C131.972 26.16 131.631 26.1173 131.311 26.032C131.012 25.9253 130.745 25.808 130.511 25.68C129.487 25.0827 128.975 23.92 128.975 22.192C128.975 21.552 129.049 21.0293 129.199 20.624C129.369 20.1973 129.604 19.856 129.903 19.6C130.201 19.3227 130.564 19.12 130.991 18.992C131.417 18.8427 131.897 18.7147 132.431 18.608C132.452 18.3947 132.463 18.192 132.463 18C132.463 17.7867 132.473 17.5733 132.495 17.36C132.559 16.5493 132.687 15.888 132.879 15.376C133.092 14.864 133.359 14.4693 133.679 14.192C134.02 13.8933 134.425 13.6907 134.895 13.584C135.385 13.4773 135.951 13.424 136.591 13.424C137.209 13.424 137.753 13.4773 138.223 13.584C138.692 13.6907 139.097 13.8933 139.439 14.192C139.78 14.4693 140.047 14.864 140.239 15.376C140.452 15.888 140.601 16.5493 140.687 17.36V17.456C141.369 17.4133 142.02 17.424 142.639 17.488C143.257 17.552 143.759 17.7013 144.143 17.936C145.167 18.5333 145.679 19.7067 145.679 21.456C145.679 22.6933 145.369 23.5787 144.751 24.112C144.153 24.6453 143.279 24.976 142.127 25.104L141.263 25.2C141.263 25.584 141.252 25.9467 141.231 26.288C141.209 26.6293 141.177 26.9493 141.135 27.248C140.772 27.3547 140.42 27.504 140.079 27.696C139.759 27.8667 139.46 28.0693 139.183 28.304C138.927 28.5387 138.703 28.784 138.511 29.04C138.319 29.2747 138.18 29.4987 138.095 29.712C138.052 29.84 138.052 29.9573 138.095 30.064C138.137 30.1493 138.201 30.2133 138.287 30.256C138.372 30.2773 138.457 30.2773 138.543 30.256C138.649 30.2347 138.724 30.1707 138.767 30.064C139.151 29.3173 139.673 28.7413 140.335 28.336C141.017 27.9307 141.732 27.76 142.479 27.824C142.948 27.8667 143.396 27.984 143.823 28.176C144.271 28.368 144.655 28.6667 144.975 29.072C145.316 29.456 145.572 29.9467 145.743 30.544C145.935 31.1413 145.999 31.856 145.935 32.688C145.892 33.392 145.679 34.0213 145.295 34.576C144.911 35.1307 144.409 35.5893 143.791 35.952C143.193 36.336 142.489 36.624 141.679 36.816C140.889 37.008 140.068 37.104 139.215 37.104C137.679 37.104 136.463 36.848 135.567 36.336C134.671 35.8453 133.988 35.1413 133.519 34.224C133.071 33.328 132.772 32.24 132.623 30.96C132.473 29.6587 132.377 28.2187 132.335 26.64V26.16ZM164.402 28.112C164.36 28.9227 164.317 29.6907 164.274 30.416C164.232 31.1413 164.168 31.856 164.082 32.56C164.018 33.1573 163.88 33.712 163.666 34.224C163.474 34.7573 163.208 35.216 162.866 35.6C162.525 35.984 162.098 36.2827 161.586 36.496C161.096 36.7307 160.52 36.848 159.858 36.848C159.176 36.848 158.578 36.7307 158.066 36.496C157.576 36.2827 157.149 35.984 156.786 35.6C156.445 35.216 156.178 34.7573 155.986 34.224C155.794 33.712 155.666 33.1573 155.602 32.56C155.432 31.1947 155.304 29.6907 155.218 28.048C155.154 26.384 155.122 24.752 155.122 23.152C155.122 21.552 155.144 20.0267 155.186 18.576C155.229 17.1253 155.336 15.728 155.506 14.384C155.613 13.36 155.997 12.5173 156.658 11.856C157.32 11.1947 158.13 10.672 159.09 10.288C160.072 9.88266 161.138 9.60533 162.29 9.456C163.464 9.28533 164.626 9.2 165.778 9.2C167.528 9.2 169.021 9.28533 170.258 9.456C171.496 9.62667 172.498 9.904 173.266 10.288C174.056 10.672 174.621 11.1733 174.962 11.792C175.325 12.4107 175.506 13.168 175.506 14.064C175.506 15.408 175.24 16.4213 174.706 17.104C174.173 17.7653 173.394 18.0107 172.37 17.84C171.944 17.776 171.474 17.7227 170.962 17.68C170.45 17.6373 169.992 17.616 169.586 17.616C168.434 17.616 167.442 17.6907 166.61 17.84C165.778 17.9893 165.021 18.2027 164.338 18.48C164.168 18.544 164.05 18.64 163.986 18.768C163.922 18.896 163.901 19.024 163.922 19.152C163.965 19.2587 164.04 19.344 164.146 19.408C164.274 19.4507 164.434 19.44 164.626 19.376C165.33 19.12 166.098 18.928 166.93 18.8C167.762 18.6507 168.573 18.576 169.362 18.576C170.173 18.5547 170.93 18.608 171.634 18.736C172.338 18.864 172.904 19.0667 173.33 19.344C173.693 19.5787 174.013 19.8347 174.29 20.112C174.568 20.368 174.792 20.6667 174.962 21.008C175.154 21.3493 175.293 21.744 175.378 22.192C175.464 22.64 175.506 23.1627 175.506 23.76C175.506 24.9547 175.325 25.872 174.962 26.512C174.621 27.152 174.077 27.696 173.33 28.144C172.904 28.4213 172.328 28.624 171.602 28.752C170.898 28.88 170.13 28.944 169.298 28.944C168.466 28.9227 167.613 28.848 166.738 28.72C165.885 28.5707 165.106 28.368 164.402 28.112ZM177.014 27.344C177.014 25.7867 177.259 24.3573 177.75 23.056C178.262 21.7333 178.966 20.6027 179.862 19.664C180.779 18.7253 181.878 17.9893 183.158 17.456C184.438 16.9227 185.867 16.656 187.446 16.656C189.046 16.656 190.432 16.9653 191.606 17.584C192.779 18.2027 193.75 19.0133 194.517 20.016C195.307 21.0187 195.894 22.16 196.278 23.44C196.662 24.72 196.854 26.0213 196.854 27.344C196.832 28.688 196.587 29.968 196.118 31.184C195.67 32.4 195.03 33.4667 194.198 34.384C193.387 35.3227 192.395 36.0587 191.222 36.592C190.07 37.1467 188.779 37.424 187.35 37.424C185.856 37.424 184.48 37.168 183.222 36.656C181.963 36.144 180.875 35.44 179.958 34.544C179.04 33.648 178.315 32.592 177.782 31.376C177.27 30.1387 177.014 28.7947 177.014 27.344ZM185.974 29.136C185.91 29.264 185.91 29.3813 185.974 29.488C186.038 29.5947 186.134 29.68 186.262 29.744C186.39 29.7867 186.528 29.7973 186.678 29.776C186.848 29.7333 186.987 29.6373 187.094 29.488C187.52 28.848 187.808 28.1227 187.958 27.312C188.107 26.5013 188.192 25.6907 188.214 24.88C188.214 24.688 188.16 24.5493 188.054 24.464C187.947 24.3787 187.819 24.336 187.67 24.336C187.542 24.3147 187.414 24.3467 187.286 24.432C187.179 24.496 187.126 24.592 187.126 24.72C187.062 25.5093 186.944 26.256 186.774 26.96C186.624 27.6427 186.358 28.368 185.974 29.136ZM209.694 36.144C209.032 36.3787 208.286 36.56 207.454 36.688C206.622 36.816 205.8 36.88 204.99 36.88C203.688 36.88 202.622 36.7093 201.79 36.368C200.83 36.0053 200.083 35.5253 199.549 34.928C199.038 34.352 198.664 33.584 198.43 32.624C198.131 31.4507 197.992 29.9467 198.014 28.112C198.035 26.256 198.067 23.9307 198.11 21.136C198.11 20.4747 198.195 19.8667 198.366 19.312C198.558 18.7573 198.856 18.288 199.262 17.904C199.667 17.4987 200.19 17.1893 200.83 16.976C201.47 16.7627 202.259 16.656 203.198 16.656C204.115 16.656 204.883 16.7627 205.502 16.976C206.142 17.1893 206.654 17.4987 207.038 17.904C207.443 18.288 207.731 18.7573 207.902 19.312C208.072 19.8667 208.158 20.4747 208.158 21.136V27.824C208.179 28.08 208.254 28.272 208.382 28.4C208.51 28.5067 208.648 28.5493 208.798 28.528C208.947 28.5067 209.086 28.432 209.214 28.304C209.342 28.1547 209.406 27.952 209.406 27.696V20.912C209.406 20.3147 209.491 19.76 209.662 19.248C209.854 18.736 210.12 18.288 210.462 17.904C210.803 17.52 211.23 17.2213 211.742 17.008C212.254 16.7733 212.83 16.656 213.47 16.656C214.11 16.656 214.675 16.7733 215.166 17.008C215.678 17.2213 216.104 17.52 216.446 17.904C216.808 18.288 217.075 18.736 217.246 19.248C217.438 19.76 217.534 20.3147 217.534 20.912V31.248C217.576 31.7813 217.63 32.3467 217.694 32.944C217.758 33.5413 217.768 34.1067 217.726 34.64C217.683 35.1733 217.534 35.6427 217.278 36.048C217.043 36.4533 216.638 36.72 216.062 36.848C215.059 37.0613 214.216 37.168 213.534 37.168C212.659 37.168 211.976 37.04 211.486 36.784C211.016 36.528 210.654 36.2187 210.398 35.856C210.163 35.4933 210.003 35.1093 209.918 34.704C209.832 34.32 209.758 33.9893 209.694 33.712C209.651 33.6053 209.587 33.5307 209.502 33.488C209.438 33.4453 209.363 33.4347 209.278 33.456C209.214 33.4773 209.15 33.5307 209.086 33.616C209.043 33.68 209.032 33.7547 209.054 33.84C209.075 34.0107 209.107 34.2027 209.15 34.416C209.214 34.6507 209.278 34.8747 209.342 35.088C209.406 35.3227 209.459 35.536 209.502 35.728C209.566 35.92 209.63 36.0587 209.694 36.144ZM229.052 30.96C229.009 31.3013 228.977 31.632 228.956 31.952C228.956 32.272 228.934 32.592 228.892 32.912C228.764 34.128 228.358 35.088 227.676 35.792C227.014 36.5173 226.012 36.88 224.668 36.88C223.302 36.88 222.257 36.5173 221.532 35.792C220.828 35.088 220.412 34.128 220.284 32.912C220.177 31.8453 220.092 30.736 220.028 29.584C219.985 28.4107 219.942 27.2907 219.9 26.224V20.496C219.9 19.344 220.252 18.416 220.956 17.712C221.66 17.008 222.588 16.656 223.74 16.656C224.657 16.656 225.521 16.8053 226.332 17.104C227.164 17.3813 227.75 17.8827 228.092 18.608C227.26 19.632 226.641 20.72 226.236 21.872C225.852 23.0027 225.724 24.1973 225.852 25.456C225.873 25.648 225.937 25.7973 226.044 25.904C226.15 25.9893 226.257 26.032 226.364 26.032C226.47 26.032 226.566 25.9893 226.652 25.904C226.737 25.8187 226.78 25.6907 226.78 25.52C226.716 24.7093 226.769 23.8987 226.94 23.088C227.11 22.2773 227.366 21.52 227.708 20.816C228.049 20.0907 228.454 19.4507 228.924 18.896C229.393 18.3413 229.884 17.904 230.396 17.584C230.865 17.3067 231.345 17.0827 231.836 16.912C232.348 16.7413 232.87 16.656 233.404 16.656C234.3 16.656 235.164 16.8053 235.996 17.104C236.849 17.4027 237.574 17.8827 238.172 18.544C238.62 19.0347 238.972 19.5467 239.228 20.08C239.484 20.6133 239.676 21.168 239.804 21.744C239.932 22.32 240.006 22.9173 240.028 23.536C240.049 24.1333 240.06 24.752 240.06 25.392C240.038 26.608 239.964 27.888 239.836 29.232C239.729 30.5547 239.548 31.7813 239.292 32.912C239.164 33.5093 238.982 34.0533 238.748 34.544C238.513 35.0347 238.214 35.4507 237.852 35.792C237.489 36.1333 237.052 36.4 236.54 36.592C236.049 36.784 235.452 36.88 234.748 36.88C233.34 36.88 232.262 36.5173 231.516 35.792C230.79 35.088 230.353 34.128 230.204 32.912C230.161 32.6347 230.129 32.3573 230.108 32.08C230.086 31.8027 230.065 31.5147 230.044 31.216C230.044 31.024 230.001 30.8747 229.916 30.768C229.83 30.64 229.734 30.5653 229.628 30.544C229.521 30.5227 229.414 30.5547 229.308 30.64C229.201 30.704 229.116 30.8107 229.052 30.96ZM257.456 22.224C257.862 22.0747 257.968 21.7867 257.776 21.36C257.648 21.104 257.467 20.8267 257.232 20.528C257.019 20.2293 256.774 19.9307 256.496 19.632C256.219 19.3333 255.92 19.0453 255.6 18.768C255.28 18.4693 254.96 18.224 254.64 18.032C254.64 17.776 254.651 17.456 254.672 17.072C254.694 16.6667 254.715 16.2613 254.736 15.856C254.758 15.4293 254.779 15.0347 254.8 14.672C254.822 14.3093 254.843 14.0107 254.864 13.776C254.928 13.1787 255.067 12.624 255.28 12.112C255.494 11.6 255.782 11.152 256.144 10.768C256.528 10.384 256.976 10.0853 257.488 9.872C258 9.63733 258.587 9.52 259.248 9.52C259.931 9.52 260.528 9.63733 261.04 9.872C261.574 10.0853 262.022 10.384 262.384 10.768C262.747 11.152 263.035 11.6 263.248 12.112C263.462 12.624 263.6 13.1787 263.664 13.776C263.75 14.6293 263.824 15.536 263.888 16.496C263.952 17.456 264.006 18.4373 264.048 19.44C264.091 20.4213 264.112 21.4027 264.112 22.384C264.134 23.3653 264.134 24.3147 264.112 25.232C264.07 27.1733 263.824 28.8907 263.376 30.384C262.95 31.856 262.256 33.0827 261.296 34.064C260.358 35.0667 259.152 35.824 257.68 36.336C256.208 36.848 254.427 37.104 252.336 37.104C250.95 37.104 249.595 36.9333 248.272 36.592C246.95 36.272 245.766 35.7067 244.72 34.896C243.675 34.0853 242.832 33.008 242.192 31.664C241.552 30.2987 241.232 28.592 241.232 26.544C241.232 24.9227 241.467 23.5467 241.936 22.416C242.406 21.2853 243.024 20.368 243.792 19.664C244.56 18.9387 245.424 18.416 246.384 18.096C247.366 17.776 248.358 17.616 249.36 17.616C250.96 17.616 252.411 17.968 253.712 18.672C255.014 19.376 256.048 20.432 256.816 21.84C256.966 22.16 257.179 22.288 257.456 22.224ZM248.816 28.656C249.584 28.4853 250.342 28.2613 251.088 27.984C251.835 27.6853 252.539 27.2907 253.2 26.8C253.328 26.7147 253.392 26.5973 253.392 26.448C253.392 26.2987 253.35 26.16 253.264 26.032C253.2 25.904 253.104 25.808 252.976 25.744C252.848 25.68 252.731 25.6907 252.624 25.776C251.942 26.2667 251.27 26.64 250.608 26.896C249.947 27.152 249.222 27.3547 248.432 27.504C248.304 27.5467 248.219 27.632 248.176 27.76C248.134 27.888 248.123 28.0267 248.144 28.176C248.187 28.304 248.262 28.4213 248.368 28.528C248.475 28.6347 248.624 28.6773 248.816 28.656Z" fill="#BDCF46"/>
<path d="M14.04 65C13.5387 65 13.1387 64.8187 12.84 64.456C12.552 64.0933 12.4453 63.5493 12.52 62.824C12.6693 61.096 12.744 59.3787 12.744 57.672C12.7547 55.9653 12.6853 54.2853 12.536 52.632C12.4613 51.8427 12.568 51.256 12.856 50.872C13.144 50.488 13.5387 50.296 14.04 50.296C14.488 50.296 14.856 50.456 15.144 50.776C15.432 51.096 15.6027 51.5867 15.656 52.248C15.784 53.9867 15.848 55.7893 15.848 57.656C15.848 59.5227 15.784 61.3307 15.656 63.08C15.6027 63.72 15.432 64.2 15.144 64.52C14.856 64.84 14.488 65 14.04 65ZM7.96 59.656C7.93867 59.8587 7.912 60.056 7.88 60.248C7.85867 60.44 7.83733 60.632 7.816 60.824C8.104 60.9413 8.30133 61.144 8.408 61.432C8.52533 61.7093 8.584 62.0613 8.584 62.488C8.584 63 8.504 63.4053 8.344 63.704C8.184 64.0027 7.896 64.184 7.48 64.248C7.07467 64.3013 6.64267 64.3387 6.184 64.36C5.72533 64.3813 5.26133 64.3867 4.792 64.376C4.33333 64.376 3.87467 64.3547 3.416 64.312C2.95733 64.2693 2.53067 64.216 2.136 64.152C1.69867 64.088 1.38933 63.9067 1.208 63.608C1.02667 63.32 0.936 62.92 0.936 62.408C0.936 61.9707 1.00533 61.6133 1.144 61.336C1.28267 61.048 1.512 60.8507 1.832 60.744C1.75733 60.1787 1.69867 59.5973 1.656 59C1.61333 58.4027 1.58667 57.816 1.576 57.24C1.576 56.664 1.58667 56.1147 1.608 55.592C1.64 55.0587 1.688 54.568 1.752 54.12C1.464 54.0027 1.256 53.8053 1.128 53.528C1 53.24 0.936 52.888 0.936 52.472C0.936 51.9707 1.02667 51.576 1.208 51.288C1.4 50.9893 1.70933 50.808 2.136 50.744C2.53067 50.68 2.95733 50.632 3.416 50.6C3.87467 50.5573 4.33333 50.536 4.792 50.536C5.26133 50.5253 5.72533 50.5307 6.184 50.552C6.64267 50.5733 7.07467 50.6107 7.48 50.664C7.88533 50.7173 8.168 50.8933 8.328 51.192C8.49867 51.4907 8.584 51.896 8.584 52.408C8.584 52.8133 8.536 53.16 8.44 53.448C8.35467 53.7253 8.17333 53.9227 7.896 54.04C7.96 54.488 8.008 54.984 8.04 55.528H9.128C9.10667 55.0587 9.08533 54.5947 9.064 54.136C9.04267 53.6773 9.01067 53.2187 8.968 52.76C8.89333 51.9707 8.99467 51.3947 9.272 51.032C9.56 50.6587 9.96 50.472 10.472 50.472C10.92 50.472 11.2827 50.6267 11.56 50.936C11.848 51.2453 12.0187 51.72 12.072 52.36C12.2107 54.0773 12.28 55.8533 12.28 57.688C12.28 59.5227 12.2107 61.2987 12.072 63.016C12.0187 63.656 11.848 64.1307 11.56 64.44C11.2827 64.7493 10.92 64.904 10.472 64.904C9.96 64.904 9.56 64.7227 9.272 64.36C8.984 63.9973 8.872 63.464 8.936 62.76C9.032 61.7147 9.096 60.68 9.128 59.656H7.96ZM4.568 60.568H4.824H5.08C5.112 60.0347 5.13333 59.5227 5.144 59.032C5.16533 58.5307 5.176 58.0293 5.176 57.528C5.176 57.0267 5.16533 56.5147 5.144 55.992C5.13333 55.4693 5.112 54.9093 5.08 54.312H4.808H4.568C4.536 54.8987 4.50933 55.4587 4.488 55.992C4.47733 56.5147 4.472 57.0267 4.472 57.528C4.472 58.0293 4.47733 58.5307 4.488 59.032C4.50933 59.5227 4.536 60.0347 4.568 60.568ZM28.2671 65C27.9471 65 27.6538 64.952 27.3871 64.856C27.1205 64.7707 26.8965 64.6373 26.7151 64.456C26.5338 64.2747 26.4005 64.0453 26.3151 63.768C26.2298 63.5013 26.2085 63.1867 26.2511 62.824C26.4538 61.096 26.5551 59.3787 26.5551 57.672C26.5551 55.9653 26.4591 54.2853 26.2671 52.632C26.1818 51.832 26.3311 51.2453 26.7151 50.872C27.0991 50.488 27.6165 50.296 28.2671 50.296C28.8325 50.296 29.2965 50.456 29.6591 50.776C30.0325 51.096 30.2511 51.5867 30.3151 52.248C30.4965 53.9867 30.5871 55.7893 30.5871 57.656C30.5871 59.5227 30.4965 61.3307 30.3151 63.08C30.2511 63.72 30.0325 64.2 29.6591 64.52C29.2965 64.84 28.8325 65 28.2671 65ZM21.2271 64.44C20.4271 64.44 19.7498 64.2747 19.1951 63.944C18.6405 63.624 18.1925 63.1653 17.8511 62.568C17.5205 61.9707 17.2805 61.2507 17.1311 60.408C16.9818 59.5653 16.9071 58.6267 16.9071 57.592C16.9071 56.5573 16.9711 55.6187 17.0991 54.776C17.2378 53.9227 17.4725 53.2027 17.8031 52.616C18.1338 52.0187 18.5765 51.56 19.1311 51.24C19.6858 50.9093 20.3845 50.744 21.2271 50.744C22.0698 50.744 22.7685 50.9093 23.3231 51.24C23.8778 51.56 24.3205 52.0187 24.6511 52.616C24.9818 53.2027 25.2111 53.9227 25.3391 54.776C25.4778 55.6187 25.5471 56.5573 25.5471 57.592C25.5471 58.6267 25.4725 59.5653 25.3231 60.408C25.1738 61.2507 24.9285 61.9707 24.5871 62.568C24.2565 63.1653 23.8138 63.624 23.2591 63.944C22.7045 64.2747 22.0271 64.44 21.2271 64.44ZM20.9871 58.632C20.9871 58.696 21.0138 58.744 21.0671 58.776C21.1205 58.808 21.1738 58.824 21.2271 58.824C21.2911 58.824 21.3498 58.808 21.4031 58.776C21.4565 58.744 21.4831 58.696 21.4831 58.632V56.568C21.4831 56.504 21.4565 56.456 21.4031 56.424C21.3498 56.3813 21.2911 56.36 21.2271 56.36C21.1738 56.36 21.1205 56.3813 21.0671 56.424C21.0138 56.456 20.9871 56.504 20.9871 56.568V58.632ZM43.4703 65C43.1503 65 42.8569 64.952 42.5903 64.856C42.3236 64.7707 42.0996 64.6373 41.9183 64.456C41.7369 64.2747 41.6036 64.0453 41.5183 63.768C41.4329 63.5013 41.4116 63.1867 41.4543 62.824C41.6569 61.096 41.7583 59.3787 41.7583 57.672C41.7583 55.9653 41.6623 54.2853 41.4703 52.632C41.3849 51.832 41.5343 51.2453 41.9183 50.872C42.3023 50.488 42.8196 50.296 43.4703 50.296C44.0356 50.296 44.4996 50.456 44.8623 50.776C45.2356 51.096 45.4543 51.5867 45.5183 52.248C45.6996 53.9867 45.7903 55.7893 45.7903 57.656C45.7903 59.5227 45.6996 61.3307 45.5183 63.08C45.4543 63.72 45.2356 64.2 44.8623 64.52C44.4996 64.84 44.0356 65 43.4703 65ZM33.6303 54.2C33.0009 54.1467 32.5423 53.96 32.2543 53.64C31.9663 53.32 31.8223 52.9467 31.8223 52.52C31.8223 52.3067 31.8596 52.0987 31.9342 51.896C32.0089 51.6933 32.1209 51.5173 32.2703 51.368C32.4303 51.208 32.6276 51.08 32.8623 50.984C33.1076 50.8773 33.3903 50.8187 33.7103 50.808C34.1903 50.7867 34.6383 50.776 35.0543 50.776C35.4809 50.7653 35.9343 50.76 36.4143 50.76C36.8729 50.76 37.3156 50.7653 37.7423 50.776C38.1796 50.776 38.6329 50.7867 39.1023 50.808C39.4223 50.8187 39.6996 50.8773 39.9343 50.984C40.1689 51.08 40.3609 51.208 40.5103 51.368C40.6703 51.5173 40.7876 51.6933 40.8623 51.896C40.9369 52.0987 40.9743 52.3067 40.9743 52.52C40.9743 52.9467 40.8303 53.32 40.5423 53.64C40.2543 53.96 39.8063 54.1467 39.1983 54.2C39.2729 54.5947 39.3849 54.9413 39.5343 55.24C39.6836 55.528 39.8543 55.8267 40.0463 56.136C40.1743 56.3493 40.3023 56.5787 40.4303 56.824C40.5583 57.0587 40.6703 57.3467 40.7663 57.688C40.8623 58.0293 40.9316 58.4453 40.9743 58.936C41.0276 59.4267 41.0436 60.0293 41.0223 60.744C40.9903 61.5333 40.9316 62.168 40.8463 62.648C40.7716 63.128 40.6596 63.5013 40.5103 63.768C40.3716 64.0347 40.1956 64.2107 39.9823 64.296C39.7689 64.392 39.5183 64.44 39.2303 64.44C38.8569 64.44 38.5423 64.3973 38.2863 64.312C38.0409 64.2267 37.8383 64.0507 37.6783 63.784C37.5289 63.528 37.4169 63.1547 37.3423 62.664C37.2783 62.1733 37.2463 61.528 37.2463 60.728C37.2463 60.1093 37.2089 59.5333 37.1343 59C37.0596 58.4667 36.9583 58.0027 36.8303 57.608C36.7983 57.5013 36.7449 57.4267 36.6703 57.384C36.5956 57.3413 36.5263 57.3307 36.4623 57.352C36.3983 57.3627 36.3449 57.4 36.3023 57.464C36.2703 57.528 36.2703 57.608 36.3023 57.704C36.4303 58.0667 36.5369 58.5253 36.6223 59.08C36.7076 59.624 36.7503 60.2533 36.7503 60.968C36.7503 61.6933 36.7076 62.28 36.6223 62.728C36.5476 63.176 36.4143 63.5227 36.2223 63.768C36.0303 64.0133 35.7796 64.1733 35.4703 64.248C35.1716 64.3333 34.7983 64.376 34.3503 64.376C33.5929 64.376 32.9903 64.0827 32.5423 63.496C32.0943 62.92 31.8543 61.9547 31.8223 60.6C31.8009 59.992 31.8169 59.4693 31.8703 59.032C31.9343 58.5947 32.0196 58.2053 32.1263 57.864C32.2436 57.5227 32.3769 57.2187 32.5263 56.952C32.6756 56.6853 32.8356 56.424 33.0063 56.168C33.1983 55.88 33.3423 55.592 33.4383 55.304C33.5343 55.0053 33.5983 54.6373 33.6303 54.2ZM47.5694 54.952C47.5694 54.472 47.7507 54.104 48.1134 53.848C48.476 53.592 48.9454 53.4373 49.5214 53.384C50.0014 53.3413 50.4494 53.288 50.8654 53.224C51.292 53.1493 51.756 53.0267 52.2574 52.856C52.3107 52.8347 52.3427 52.8027 52.3534 52.76C52.3747 52.7067 52.38 52.6587 52.3694 52.616C52.3587 52.5627 52.332 52.5253 52.2894 52.504C52.2467 52.472 52.1987 52.4613 52.1454 52.472C51.676 52.632 51.2174 52.76 50.7694 52.856C50.3214 52.952 49.8414 53.0107 49.3294 53.032C48.7427 53.064 48.3267 52.9573 48.0814 52.712C47.836 52.4667 47.7134 52.1573 47.7134 51.784C47.7134 51.4427 47.82 51.1813 48.0334 51C48.2574 50.808 48.588 50.7013 49.0254 50.68C50.7107 50.616 52.428 50.584 54.1774 50.584C55.9374 50.584 57.676 50.616 59.3934 50.68C59.8307 50.7013 60.156 50.7867 60.3694 50.936C60.5827 51.0853 60.6894 51.32 60.6894 51.64C60.6894 51.9067 60.5934 52.136 60.4014 52.328C60.22 52.52 59.9854 52.616 59.6974 52.616C58.812 52.6373 57.9854 52.7707 57.2174 53.016C56.4494 53.2507 55.7827 53.56 55.2174 53.944C55.1107 54.0187 55.0787 54.104 55.1214 54.2C55.1747 54.296 55.2654 54.312 55.3934 54.248C55.8947 53.9493 56.4174 53.6933 56.9614 53.48C57.516 53.256 58.1134 53.1333 58.7534 53.112C59.3934 53.0907 59.8894 53.224 60.2414 53.512C60.604 53.8 60.7854 54.184 60.7854 54.664C60.7854 55.1653 60.5987 55.5333 60.2254 55.768C59.852 56.0027 59.308 56.1467 58.5934 56.2C57.036 56.296 55.468 56.344 53.8894 56.344C52.3214 56.3333 50.8014 56.28 49.3294 56.184C48.7747 56.1413 48.3427 56.0347 48.0334 55.864C47.724 55.6827 47.5694 55.3787 47.5694 54.952ZM47.0254 57.592C47.0254 57.2933 47.1534 57.0373 47.4094 56.824C47.676 56.6107 48.0387 56.52 48.4974 56.552C49.3507 56.6053 50.2574 56.6427 51.2174 56.664C52.1774 56.6853 53.148 56.696 54.1294 56.696C55.1214 56.696 56.1027 56.6853 57.0734 56.664C58.0547 56.6427 58.988 56.6053 59.8734 56.552C60.3427 56.52 60.7054 56.6107 60.9614 56.824C61.228 57.0373 61.3614 57.2933 61.3614 57.592C61.3614 57.9547 61.228 58.2267 60.9614 58.408C60.7054 58.5893 60.3374 58.696 59.8574 58.728C58.972 58.792 58.044 58.84 57.0734 58.872C56.1027 58.904 55.1214 58.92 54.1294 58.92C53.148 58.92 52.1774 58.904 51.2174 58.872C50.2574 58.84 49.3507 58.792 48.4974 58.728C48.0387 58.6853 47.676 58.5787 47.4094 58.408C47.1534 58.2267 47.0254 57.9547 47.0254 57.592ZM52.1454 61.016C51.676 61.1653 51.1907 61.288 50.6894 61.384C50.188 61.48 49.6867 61.5387 49.1854 61.56C48.5987 61.592 48.1827 61.4907 47.9374 61.256C47.692 61.0107 47.5694 60.7013 47.5694 60.328C47.5694 59.9867 47.676 59.7093 47.8894 59.496C48.1134 59.272 48.444 59.1707 48.8814 59.192C49.7027 59.256 50.5614 59.304 51.4574 59.336C52.364 59.3573 53.276 59.368 54.1934 59.368C55.1107 59.368 56.0174 59.3573 56.9134 59.336C57.82 59.304 58.684 59.256 59.5054 59.192C59.9534 59.1707 60.2787 59.2507 60.4814 59.432C60.6947 59.6133 60.8014 59.8587 60.8014 60.168C60.8014 60.4347 60.7107 60.664 60.5294 60.856C60.348 61.048 60.1134 61.1493 59.8254 61.16C58.9294 61.1813 58.076 61.3093 57.2654 61.544C56.4654 61.768 55.7827 62.0773 55.2174 62.472C55.164 62.504 55.132 62.5467 55.1214 62.6C55.1107 62.6533 55.1107 62.7013 55.1214 62.744C55.1427 62.776 55.1747 62.8027 55.2174 62.824C55.2707 62.8347 55.3294 62.8187 55.3934 62.776C55.8947 62.488 56.4387 62.232 57.0254 62.008C57.612 61.7733 58.2307 61.6453 58.8814 61.624C59.5214 61.6133 60.0227 61.752 60.3854 62.04C60.748 62.3173 60.9294 62.696 60.9294 63.176C60.9294 63.688 60.7427 64.056 60.3694 64.28C59.996 64.5147 59.4467 64.6587 58.7214 64.712C57.9427 64.7653 57.1427 64.8027 56.3214 64.824C55.5107 64.8453 54.6947 64.856 53.8734 64.856C53.0627 64.856 52.2627 64.84 51.4734 64.808C50.684 64.7867 49.9214 64.7493 49.1854 64.696C48.6307 64.664 48.1987 64.5573 47.8894 64.376C47.58 64.2053 47.4254 63.912 47.4254 63.496C47.4254 63.016 47.6014 62.648 47.9534 62.392C48.316 62.1253 48.78 61.9707 49.3454 61.928C49.8467 61.8747 50.3267 61.816 50.7854 61.752C51.2547 61.6773 51.7454 61.5547 52.2574 61.384C52.3107 61.3627 52.3427 61.3307 52.3534 61.288C52.3747 61.2347 52.38 61.1867 52.3694 61.144C52.3587 61.0907 52.332 61.0533 52.2894 61.032C52.2467 61 52.1987 60.9947 52.1454 61.016ZM67.836 54.28H67.724C67.116 54.248 66.668 54.1093 66.38 53.864C66.1027 53.6187 65.964 53.32 65.964 52.968C65.964 52.616 66.1027 52.312 66.38 52.056C66.668 51.8 67.116 51.6613 67.724 51.64C67.788 51.64 67.852 51.64 67.916 51.64C67.98 51.6293 68.044 51.624 68.108 51.624C68.0227 51.5173 67.9587 51.4053 67.916 51.288C67.884 51.1707 67.868 51.064 67.868 50.968C67.868 50.68 68.0707 50.4347 68.476 50.232C68.8813 50.0293 69.4147 49.928 70.076 49.928C70.7267 49.928 71.2493 50.0293 71.644 50.232C72.0493 50.4347 72.252 50.68 72.252 50.968C72.252 51.064 72.236 51.1707 72.204 51.288C72.172 51.3947 72.1133 51.5013 72.028 51.608C72.1453 51.6187 72.2627 51.624 72.38 51.624C72.508 51.624 72.636 51.6293 72.764 51.64C73.3613 51.6613 73.804 51.8 74.092 52.056C74.38 52.312 74.524 52.616 74.524 52.968C74.524 53.32 74.38 53.6187 74.092 53.864C73.804 54.1093 73.3613 54.248 72.764 54.28H72.572C72.7213 54.3973 72.8867 54.5093 73.068 54.616C73.26 54.7227 73.4627 54.8347 73.676 54.952C73.8253 55.0373 73.964 55.1387 74.092 55.256C74.22 55.3733 74.3267 55.5227 74.412 55.704C74.4973 55.8853 74.556 56.1093 74.588 56.376C74.6307 56.632 74.6413 56.9413 74.62 57.304C74.588 57.7093 74.5293 58.04 74.444 58.296C74.3693 58.5413 74.2627 58.7333 74.124 58.872C73.9853 59 73.8093 59.0907 73.596 59.144C73.3933 59.1867 73.1533 59.208 72.876 59.208C72.5133 59.208 72.2093 59.1867 71.964 59.144C71.7187 59.1013 71.516 59.0107 71.356 58.872C71.2067 58.7333 71.1 58.5413 71.036 58.296C70.972 58.0507 70.94 57.72 70.94 57.304C70.94 56.824 70.8867 56.424 70.78 56.104C70.684 55.7733 70.4653 55.4747 70.124 55.208C70.0493 55.1547 69.98 55.1333 69.916 55.144C69.8627 55.144 69.82 55.1653 69.788 55.208C69.756 55.2507 69.7453 55.304 69.756 55.368C69.7773 55.432 69.8253 55.4853 69.9 55.528C70.1347 55.6773 70.284 55.912 70.348 56.232C70.4227 56.552 70.46 56.952 70.46 57.432C70.46 57.8053 70.4173 58.104 70.332 58.328C70.2573 58.552 70.1293 58.728 69.948 58.856C69.7667 58.9733 69.5267 59.0533 69.228 59.096C68.9293 59.1387 68.5613 59.16 68.124 59.16C67.3773 59.16 66.7853 59.016 66.348 58.728C65.9213 58.44 65.692 57.944 65.66 57.24C65.628 56.6 65.6973 56.1147 65.868 55.784C66.0493 55.4427 66.364 55.1653 66.812 54.952C67.036 54.8453 67.2333 54.744 67.404 54.648C67.5747 54.5413 67.7187 54.4187 67.836 54.28ZM78.988 57.32C78.9667 57.4373 78.9507 57.544 78.94 57.64C78.94 57.736 78.9293 57.8373 78.908 57.944C78.8333 58.4773 78.6147 58.872 78.252 59.128C77.8893 59.384 77.4253 59.512 76.86 59.512C76.54 59.512 76.2467 59.4747 75.98 59.4C75.724 59.3253 75.5053 59.2187 75.324 59.08C75.1533 58.9307 75.0253 58.7493 74.94 58.536C74.8653 58.312 74.8493 58.0507 74.892 57.752C75.0093 56.856 75.068 55.912 75.068 54.92C75.068 53.9173 75.0147 53 74.908 52.168C74.812 51.5067 74.9507 51.0267 75.324 50.728C75.6973 50.4293 76.2093 50.28 76.86 50.28C77.4253 50.28 77.8893 50.408 78.252 50.664C78.6147 50.9093 78.8333 51.304 78.908 51.848C78.9293 51.9653 78.9453 52.088 78.956 52.216C78.9667 52.344 78.9827 52.472 79.004 52.6L79.5 52.552C79.8733 52.5093 80.1613 52.68 80.364 53.064C80.5667 53.4373 80.668 54.072 80.668 54.968C80.668 55.8427 80.5667 56.472 80.364 56.856C80.1613 57.24 79.8733 57.4107 79.5 57.368L78.988 57.32ZM68.236 61.704C68.14 61.6933 68.044 61.688 67.948 61.688C67.852 61.688 67.756 61.6827 67.66 61.672C67.2227 61.64 66.8653 61.5493 66.588 61.4C66.3213 61.2507 66.188 61.0213 66.188 60.712C66.188 60.4027 66.3213 60.1787 66.588 60.04C66.8653 59.8907 67.2227 59.8 67.66 59.768C68.4387 59.7147 69.2547 59.6773 70.108 59.656C70.972 59.6347 71.8467 59.624 72.732 59.624C73.6067 59.624 74.4707 59.6347 75.324 59.656C76.188 59.6773 77.0093 59.7147 77.788 59.768C78.2253 59.8 78.5773 59.8907 78.844 60.04C79.1213 60.1787 79.26 60.4027 79.26 60.712C79.26 61.0213 79.1213 61.2507 78.844 61.4C78.5773 61.5493 78.2253 61.64 77.788 61.672C77.692 61.6827 77.5907 61.688 77.484 61.688C77.388 61.688 77.292 61.6933 77.196 61.704C77.868 61.8853 78.3907 62.1307 78.764 62.44C79.148 62.7387 79.34 63.0907 79.34 63.496C79.34 64.008 79.1053 64.3813 78.636 64.616C78.1773 64.8613 77.5 64.984 76.604 64.984C75.6333 64.984 74.9027 64.8667 74.412 64.632C73.932 64.3973 73.66 64.056 73.596 63.608C73.532 63.096 73.3507 62.728 73.052 62.504C72.7533 62.28 72.364 62.1253 71.884 62.04C71.7773 62.008 71.6973 62.0507 71.644 62.168C71.6227 62.2 71.628 62.2373 71.66 62.28C71.692 62.312 71.7347 62.3387 71.788 62.36C72.1613 62.424 72.476 62.5573 72.732 62.76C72.988 62.952 73.116 63.2453 73.116 63.64C73.116 64.1093 72.812 64.4507 72.204 64.664C71.6067 64.8773 70.7427 64.984 69.612 64.984C68.4813 64.984 67.612 64.8667 67.004 64.632C66.4067 64.3973 66.108 63.9813 66.108 63.384C66.108 62.9893 66.2947 62.6587 66.668 62.392C67.0413 62.1147 67.564 61.8853 68.236 61.704ZM81.5991 53.304C81.5991 52.792 81.7538 52.3547 82.0631 51.992C82.3831 51.6293 82.8311 51.336 83.4071 51.112C83.9938 50.8773 84.6978 50.712 85.5191 50.616C86.3405 50.5093 87.2631 50.456 88.2871 50.456C89.3005 50.456 90.2178 50.504 91.0391 50.6C91.8605 50.696 92.5591 50.856 93.1351 51.08C93.7218 51.2933 94.1698 51.5813 94.4791 51.944C94.7991 52.3067 94.9591 52.76 94.9591 53.304C94.9591 53.848 94.7991 54.3067 94.4791 54.68C94.1698 55.0427 93.7218 55.336 93.1351 55.56C92.5591 55.784 91.8605 55.944 91.0391 56.04C90.2178 56.136 89.3005 56.184 88.2871 56.184C87.2631 56.184 86.3405 56.136 85.5191 56.04C84.6978 55.9333 83.9938 55.768 83.4071 55.544C82.8311 55.3093 82.3831 55.0107 82.0631 54.648C81.7538 54.2747 81.5991 53.8267 81.5991 53.304ZM87.4551 53.928C87.4018 53.96 87.3751 54.0133 87.3751 54.088C87.3751 54.152 87.3965 54.2107 87.4391 54.264C87.4818 54.3173 87.5405 54.3547 87.6151 54.376C87.6898 54.3973 87.7698 54.3813 87.8551 54.328C88.2178 54.136 88.5431 53.88 88.8311 53.56C89.1298 53.24 89.3485 52.8987 89.4871 52.536C89.5191 52.4507 89.5191 52.376 89.4871 52.312C89.4551 52.2373 89.4125 52.1787 89.3591 52.136C89.3058 52.0933 89.2471 52.072 89.1831 52.072C89.1191 52.072 89.0711 52.104 89.0391 52.168C88.6231 52.904 88.0951 53.4907 87.4551 53.928ZM81.1191 57.528C81.1191 57.24 81.2471 56.9893 81.5031 56.776C81.7698 56.552 82.1325 56.456 82.5911 56.488C83.4445 56.5413 84.3511 56.584 85.3111 56.616C86.2711 56.6373 87.2418 56.648 88.2231 56.648C89.2151 56.648 90.1965 56.6373 91.1671 56.616C92.1485 56.584 93.0818 56.5413 93.9671 56.488C94.4365 56.456 94.7991 56.552 95.0551 56.776C95.3218 56.9893 95.4551 57.24 95.4551 57.528C95.4551 57.8907 95.3218 58.168 95.0551 58.36C94.7991 58.5413 94.4311 58.6427 93.9511 58.664C93.0658 58.728 92.1378 58.776 91.1671 58.808C90.1965 58.84 89.2151 58.856 88.2231 58.856C87.2418 58.856 86.2711 58.84 85.3111 58.808C84.3511 58.776 83.4445 58.728 82.5911 58.664C82.1325 58.632 81.7698 58.5253 81.5031 58.344C81.2471 58.1627 81.1191 57.8907 81.1191 57.528ZM86.2391 61.016C85.7698 61.1653 85.2845 61.288 84.7831 61.384C84.2818 61.48 83.7805 61.5387 83.2791 61.56C82.6925 61.592 82.2765 61.4907 82.0311 61.256C81.7858 61.0107 81.6631 60.7013 81.6631 60.328C81.6631 59.9867 81.7698 59.7093 81.9831 59.496C82.2071 59.272 82.5378 59.1707 82.9751 59.192C83.7965 59.256 84.6551 59.304 85.5511 59.336C86.4578 59.3573 87.3698 59.368 88.2871 59.368C89.2045 59.368 90.1111 59.3573 91.0071 59.336C91.9138 59.304 92.7778 59.256 93.5991 59.192C94.0471 59.1707 94.3725 59.2507 94.5751 59.432C94.7885 59.6133 94.8951 59.8587 94.8951 60.168C94.8951 60.4347 94.8045 60.664 94.6231 60.856C94.4418 61.048 94.2071 61.1493 93.9191 61.16C93.0231 61.1813 92.1698 61.3093 91.3591 61.544C90.5591 61.768 89.8765 62.0773 89.3111 62.472C89.2578 62.504 89.2258 62.5467 89.2151 62.6C89.2045 62.6533 89.2045 62.7013 89.2151 62.744C89.2365 62.776 89.2685 62.8027 89.3111 62.824C89.3645 62.8347 89.4231 62.8187 89.4871 62.776C89.9885 62.488 90.5325 62.232 91.1191 62.008C91.7058 61.7733 92.3245 61.6453 92.9751 61.624C93.6151 61.6133 94.1165 61.752 94.4791 62.04C94.8418 62.3173 95.0231 62.696 95.0231 63.176C95.0231 63.688 94.8365 64.056 94.4631 64.28C94.0898 64.5147 93.5405 64.6587 92.8151 64.712C92.0365 64.7653 91.2365 64.8027 90.4151 64.824C89.6045 64.8453 88.7885 64.856 87.9671 64.856C87.1565 64.856 86.3565 64.84 85.5671 64.808C84.7778 64.7867 84.0151 64.7493 83.2791 64.696C82.7245 64.664 82.2925 64.5573 81.9831 64.376C81.6738 64.2053 81.5191 63.912 81.5191 63.496C81.5191 63.016 81.6951 62.648 82.0471 62.392C82.4098 62.1253 82.8738 61.9707 83.4391 61.928C83.9405 61.8747 84.4205 61.816 84.8791 61.752C85.3485 61.6773 85.8391 61.5547 86.3511 61.384C86.4045 61.3627 86.4365 61.3307 86.4471 61.288C86.4685 61.2347 86.4738 61.1867 86.4631 61.144C86.4525 61.0907 86.4258 61.0533 86.3831 61.032C86.3405 61 86.2925 60.9947 86.2391 61.016ZM100.41 56.44C100.388 56.0027 100.42 55.6187 100.506 55.288C100.591 54.9573 100.714 54.68 100.874 54.456C101.034 54.232 101.22 54.056 101.434 53.928C101.658 53.8 101.898 53.7147 102.154 53.672C102.815 53.5547 103.391 53.3573 103.882 53.08C104.383 52.792 104.692 52.408 104.81 51.928C104.874 51.6293 104.975 51.3893 105.114 51.208C105.252 51.0267 105.418 50.8827 105.61 50.776C105.812 50.6693 106.042 50.6 106.298 50.568C106.564 50.5253 106.858 50.504 107.178 50.504C107.498 50.504 107.78 50.5253 108.026 50.568C108.271 50.6 108.484 50.6693 108.666 50.776C108.858 50.872 109.018 51.0107 109.146 51.192C109.284 51.3627 109.396 51.592 109.482 51.88C109.556 52.136 109.695 52.36 109.898 52.552C110.111 52.744 110.356 52.9147 110.634 53.064C110.911 53.2133 111.204 53.3413 111.514 53.448C111.834 53.544 112.148 53.624 112.458 53.688C112.746 53.752 112.991 53.8693 113.194 54.04C113.407 54.2107 113.572 54.424 113.69 54.68C113.818 54.9253 113.903 55.2027 113.946 55.512C113.988 55.8107 113.994 56.12 113.962 56.44C113.866 57.2613 113.61 57.8373 113.194 58.168C112.788 58.4987 112.164 58.664 111.322 58.664C110.66 58.664 110.132 58.6373 109.738 58.584C109.343 58.5307 109.039 58.424 108.826 58.264C108.612 58.104 108.474 57.8747 108.41 57.576C108.346 57.2773 108.314 56.8827 108.314 56.392C108.314 55.816 108.202 55.3253 107.978 54.92C107.764 54.5147 107.412 54.1467 106.922 53.816C106.858 53.7733 106.788 53.7573 106.714 53.768C106.639 53.7787 106.575 53.8053 106.522 53.848C106.479 53.8907 106.458 53.944 106.458 54.008C106.468 54.0613 106.516 54.1147 106.602 54.168C106.975 54.4027 107.274 54.696 107.498 55.048C107.722 55.4 107.834 55.896 107.834 56.536C107.834 56.952 107.818 57.2987 107.786 57.576C107.754 57.8427 107.626 58.056 107.402 58.216C107.178 58.3653 106.815 58.472 106.314 58.536C105.812 58.5893 105.092 58.616 104.154 58.616C103.588 58.616 103.076 58.584 102.618 58.52C102.17 58.4453 101.786 58.3227 101.466 58.152C101.146 57.9813 100.895 57.7573 100.714 57.48C100.532 57.2027 100.431 56.856 100.41 56.44ZM104.522 62.328C103.988 62.3067 103.466 62.2853 102.954 62.264C102.452 62.232 101.962 62.1947 101.482 62.152C101.023 62.1093 100.66 61.9387 100.394 61.64C100.138 61.3413 100.01 60.952 100.01 60.472C100.01 60.2693 100.042 60.072 100.106 59.88C100.18 59.688 100.282 59.5173 100.41 59.368C100.538 59.2187 100.692 59.1067 100.874 59.032C101.055 58.9467 101.258 58.9147 101.482 58.936C102.335 59.0213 103.242 59.08 104.202 59.112C105.162 59.144 106.132 59.16 107.114 59.16C108.106 59.16 109.087 59.144 110.058 59.112C111.039 59.0693 111.972 59.0107 112.858 58.936C113.092 58.9147 113.3 58.9467 113.482 59.032C113.663 59.1173 113.818 59.2347 113.946 59.384C114.074 59.5227 114.17 59.688 114.234 59.88C114.308 60.072 114.346 60.2693 114.346 60.472C114.346 60.952 114.212 61.3413 113.946 61.64C113.69 61.9387 113.322 62.1093 112.842 62.152C112.362 62.1947 111.866 62.2267 111.354 62.248C110.852 62.2693 110.34 62.2907 109.818 62.312C109.86 62.5147 109.882 62.7867 109.882 63.128C109.882 63.576 109.839 63.9227 109.754 64.168C109.668 64.424 109.519 64.6107 109.306 64.728C109.103 64.856 108.826 64.9307 108.474 64.952C108.132 64.9733 107.7 64.984 107.178 64.984C106.655 64.984 106.218 64.9733 105.866 64.952C105.514 64.9307 105.231 64.856 105.018 64.728C104.815 64.6107 104.671 64.424 104.586 64.168C104.5 63.9227 104.458 63.576 104.458 63.128C104.458 62.7973 104.479 62.5307 104.522 62.328ZM127.7 56.152C127.455 56.8453 127.002 57.4053 126.34 57.832C125.679 58.248 124.74 58.456 123.524 58.456C122.692 58.456 121.994 58.3547 121.428 58.152C120.874 57.9493 120.42 57.672 120.068 57.32C119.727 56.9573 119.482 56.536 119.332 56.056C119.194 55.5653 119.124 55.0373 119.124 54.472C119.124 53.8853 119.188 53.3413 119.316 52.84C119.455 52.328 119.69 51.8907 120.02 51.528C120.351 51.1547 120.799 50.8667 121.364 50.664C121.93 50.4507 122.65 50.344 123.524 50.344C124.154 50.344 124.703 50.4027 125.172 50.52C125.642 50.6267 126.042 50.7813 126.372 50.984C126.714 51.1867 126.991 51.432 127.204 51.72C127.418 52.008 127.583 52.328 127.7 52.68H128.58C128.57 52.5947 128.559 52.5147 128.548 52.44C128.548 52.3547 128.538 52.2693 128.516 52.184C128.474 51.8533 128.49 51.5707 128.564 51.336C128.65 51.1013 128.778 50.9093 128.948 50.76C129.13 50.6 129.348 50.4827 129.604 50.408C129.871 50.3333 130.164 50.296 130.484 50.296C131.05 50.296 131.514 50.424 131.876 50.68C132.239 50.9253 132.458 51.32 132.532 51.864C132.682 52.7707 132.756 53.6293 132.756 54.44C132.756 55.24 132.682 56.0933 132.532 57C132.458 57.544 132.239 57.944 131.876 58.2C131.514 58.4453 131.05 58.568 130.484 58.568C129.834 58.568 129.322 58.424 128.948 58.136C128.575 57.848 128.426 57.4 128.5 56.792C128.522 56.6747 128.532 56.568 128.532 56.472C128.543 56.3653 128.559 56.2587 128.58 56.152H127.7ZM122.34 54.008C122.564 54.3173 122.863 54.584 123.236 54.808C123.62 55.0213 124.015 55.1813 124.42 55.288C124.516 55.3093 124.596 55.2987 124.66 55.256C124.724 55.2133 124.767 55.16 124.788 55.096C124.81 55.0213 124.81 54.952 124.788 54.888C124.778 54.824 124.74 54.7813 124.676 54.76C124.292 54.6427 123.935 54.4827 123.604 54.28C123.284 54.0773 122.97 53.8267 122.66 53.528C122.607 53.4853 122.548 53.4747 122.484 53.496C122.431 53.5067 122.383 53.544 122.34 53.608C122.298 53.6613 122.271 53.7253 122.26 53.8C122.25 53.8747 122.276 53.944 122.34 54.008ZM122.372 60.28C122.714 60.216 123.039 60.216 123.348 60.28V59.864C123.348 59.6187 123.418 59.416 123.556 59.256C123.706 59.0853 123.887 58.9573 124.1 58.872C124.324 58.7867 124.57 58.7493 124.836 58.76C125.103 58.76 125.354 58.808 125.588 58.904C125.823 59 126.026 59.1493 126.196 59.352C126.367 59.544 126.474 59.784 126.516 60.072C126.559 60.3813 126.591 60.7173 126.612 61.08C126.9 60.3227 127.332 59.7573 127.908 59.384C128.484 59.0107 129.092 58.824 129.732 58.824C130.159 58.824 130.58 58.9093 130.996 59.08C131.412 59.2507 131.78 59.512 132.1 59.864C132.42 60.2053 132.676 60.6373 132.868 61.16C133.071 61.672 133.172 62.2747 133.172 62.968C133.172 63.3627 133.14 63.688 133.076 63.944C133.012 64.2107 132.916 64.4187 132.788 64.568C132.66 64.728 132.5 64.84 132.308 64.904C132.116 64.968 131.892 65 131.636 65C131.22 65 130.884 64.8987 130.628 64.696C130.372 64.4933 130.202 64.136 130.116 63.624C130.084 63.3893 130.047 63.096 130.004 62.744C129.962 62.392 129.94 62.0613 129.94 61.752C129.94 61.6773 129.914 61.6187 129.86 61.576C129.818 61.5333 129.77 61.512 129.716 61.512C129.663 61.512 129.61 61.5333 129.556 61.576C129.514 61.6187 129.492 61.6773 129.492 61.752C129.492 62.0613 129.476 62.392 129.444 62.744C129.412 63.096 129.375 63.384 129.332 63.608C129.247 64.12 129.076 64.4773 128.82 64.68C128.575 64.8933 128.239 65 127.812 65C127.428 65 127.119 64.9253 126.884 64.776C126.65 64.6267 126.484 64.3547 126.388 63.96C126.154 64.4827 125.727 64.7867 125.108 64.872C123.615 65.1173 122.122 65.1173 120.628 64.872C120.244 64.8187 119.93 64.6747 119.684 64.44C119.439 64.216 119.279 63.9067 119.204 63.512C119.119 62.9893 119.076 62.4293 119.076 61.832C119.076 61.224 119.119 60.6373 119.204 60.072C119.247 59.784 119.354 59.544 119.524 59.352C119.706 59.1493 119.914 59 120.148 58.904C120.383 58.808 120.628 58.76 120.884 58.76C121.151 58.7493 121.391 58.7867 121.604 58.872C121.828 58.9573 122.01 59.0853 122.148 59.256C122.298 59.416 122.372 59.6187 122.372 59.864V60.28ZM121.844 62.248C121.802 62.3867 121.855 62.5147 122.004 62.632C122.282 62.8133 122.564 62.904 122.852 62.904C123.151 62.904 123.434 62.8133 123.7 62.632C123.828 62.5467 123.876 62.4293 123.844 62.28C123.823 62.2267 123.786 62.184 123.732 62.152C123.679 62.1093 123.626 62.1093 123.572 62.152C123.359 62.3013 123.119 62.376 122.852 62.376C122.586 62.3653 122.346 62.2853 122.132 62.136C122.09 62.104 122.036 62.0987 121.972 62.12C121.919 62.1413 121.876 62.184 121.844 62.248ZM134.504 54.488C134.504 53.9547 134.621 53.5173 134.856 53.176C135.101 52.8347 135.48 52.6373 135.992 52.584C136.322 52.5413 136.642 52.4827 136.952 52.408C137.272 52.3333 137.565 52.248 137.832 52.152C138.098 52.0453 138.333 51.9227 138.536 51.784C138.738 51.6453 138.888 51.496 138.984 51.336C139.101 51.1333 139.25 50.968 139.432 50.84C139.624 50.712 139.821 50.6107 140.024 50.536C140.237 50.4613 140.45 50.4133 140.664 50.392C140.877 50.36 141.08 50.344 141.272 50.344C141.442 50.344 141.624 50.3547 141.816 50.376C142.018 50.3867 142.216 50.424 142.408 50.488C142.61 50.552 142.802 50.648 142.984 50.776C143.165 50.904 143.336 51.08 143.496 51.304C143.613 51.4747 143.794 51.6347 144.04 51.784C144.296 51.9227 144.573 52.0453 144.872 52.152C145.181 52.2587 145.49 52.3493 145.8 52.424C146.12 52.4987 146.408 52.552 146.664 52.584C146.909 52.616 147.117 52.696 147.288 52.824C147.469 52.952 147.613 53.1067 147.72 53.288C147.837 53.4587 147.922 53.6507 147.976 53.864C148.029 54.0773 148.056 54.2853 148.056 54.488C148.056 55.0853 147.826 55.496 147.368 55.72C146.909 55.9333 146.258 56.04 145.416 56.04C144.68 56.04 144.109 56.024 143.704 55.992C143.298 55.9493 143 55.8747 142.808 55.768C142.626 55.6507 142.514 55.4907 142.472 55.288C142.44 55.0747 142.418 54.7973 142.408 54.456C142.386 54.0507 142.28 53.7093 142.088 53.432C141.896 53.144 141.634 52.9093 141.304 52.728C141.24 52.696 141.176 52.6853 141.112 52.696C141.058 52.7067 141.016 52.7333 140.984 52.776C140.962 52.8187 140.957 52.8667 140.968 52.92C140.978 52.9733 141.021 53.0213 141.096 53.064C141.384 53.2133 141.592 53.4267 141.72 53.704C141.858 53.9707 141.928 54.2587 141.928 54.568C141.928 54.888 141.906 55.144 141.864 55.336C141.832 55.528 141.698 55.6773 141.464 55.784C141.24 55.88 140.877 55.944 140.376 55.976C139.874 55.9973 139.165 56.008 138.248 56.008C137.682 56.008 137.165 55.9867 136.696 55.944C136.237 55.8907 135.842 55.8053 135.512 55.688C135.192 55.5707 134.941 55.416 134.76 55.224C134.589 55.032 134.504 54.7867 134.504 54.488ZM134.104 57.432C134.104 57.1333 134.232 56.8773 134.488 56.664C134.754 56.4507 135.117 56.36 135.576 56.392C136.429 56.4453 137.336 56.488 138.296 56.52C139.256 56.5413 140.226 56.552 141.208 56.552C142.2 56.552 143.181 56.5413 144.152 56.52C145.133 56.488 146.066 56.4453 146.952 56.392C147.421 56.3707 147.784 56.4667 148.04 56.68C148.306 56.8827 148.44 57.1333 148.44 57.432C148.44 57.7947 148.306 58.0667 148.04 58.248C147.784 58.4293 147.416 58.536 146.936 58.568C146.05 58.632 145.122 58.68 144.152 58.712C143.181 58.744 142.2 58.76 141.208 58.76C140.226 58.76 139.256 58.744 138.296 58.712C137.336 58.68 136.429 58.632 135.576 58.568C135.117 58.536 134.754 58.4293 134.488 58.248C134.232 58.0667 134.104 57.7947 134.104 57.432ZM142.072 60.104C142.072 59.8693 142.194 59.6773 142.44 59.528C142.685 59.368 142.989 59.2507 143.352 59.176C143.725 59.0907 144.13 59.0533 144.568 59.064C145.016 59.064 145.437 59.112 145.832 59.208C146.237 59.304 146.584 59.448 146.872 59.64C147.17 59.8213 147.362 60.0507 147.448 60.328C147.586 60.8507 147.656 61.4 147.656 61.976C147.666 62.5413 147.597 63.0747 147.448 63.576C147.33 63.9493 147.058 64.248 146.632 64.472C146.205 64.696 145.656 64.8347 144.984 64.888C143.693 64.9947 142.429 65.048 141.192 65.048C139.954 65.0587 138.722 65.0053 137.496 64.888C136.824 64.8347 136.274 64.696 135.848 64.472C135.432 64.248 135.165 63.9493 135.048 63.576C134.888 63.0747 134.818 62.5467 134.84 61.992C134.872 61.4267 134.941 60.872 135.048 60.328C135.09 60.0507 135.25 59.8213 135.528 59.64C135.816 59.448 136.157 59.304 136.552 59.208C136.946 59.112 137.368 59.064 137.816 59.064C138.264 59.0533 138.674 59.0907 139.048 59.176C139.432 59.2507 139.746 59.368 139.992 59.528C140.248 59.6773 140.376 59.8693 140.376 60.104V60.504C140.962 60.44 141.528 60.44 142.072 60.504V60.104ZM142.2 62.232C141.911 62.4027 141.581 62.488 141.208 62.488C140.845 62.4773 140.525 62.3867 140.248 62.216C140.194 62.1947 140.13 62.1947 140.056 62.216C139.981 62.2267 139.922 62.2747 139.88 62.36C139.794 62.4987 139.864 62.632 140.088 62.76C140.45 62.9413 140.834 63.032 141.24 63.032C141.645 63.032 142.029 62.9413 142.392 62.76C142.456 62.7173 142.504 62.6693 142.536 62.616C142.568 62.552 142.573 62.472 142.552 62.376C142.53 62.3227 142.482 62.28 142.408 62.248C142.344 62.2053 142.274 62.2 142.2 62.232ZM160.987 65C160.667 65 160.373 64.952 160.107 64.856C159.84 64.7707 159.616 64.6373 159.435 64.456C159.253 64.2747 159.12 64.0453 159.035 63.768C158.949 63.5013 158.928 63.1867 158.971 62.824C159.173 61.096 159.275 59.3787 159.275 57.672C159.275 55.9653 159.179 54.2853 158.987 52.632C158.901 51.832 159.051 51.2453 159.435 50.872C159.819 50.488 160.336 50.296 160.987 50.296C161.552 50.296 162.016 50.456 162.379 50.776C162.752 51.096 162.971 51.5867 163.035 52.248C163.216 53.9867 163.307 55.7893 163.307 57.656C163.307 59.5227 163.216 61.3307 163.035 63.08C162.971 63.72 162.752 64.2 162.379 64.52C162.016 64.84 161.552 65 160.987 65ZM153.931 58.136C153.589 58.264 153.301 58.4187 153.067 58.6C152.981 58.664 152.96 58.744 153.003 58.84C153.045 58.936 153.12 58.9467 153.227 58.872C153.355 58.776 153.531 58.6853 153.755 58.6C153.979 58.5147 154.219 58.44 154.475 58.376C154.731 58.312 154.992 58.264 155.259 58.232C155.525 58.1893 155.765 58.168 155.979 58.168C156.267 58.168 156.549 58.216 156.827 58.312C157.115 58.3973 157.376 58.536 157.611 58.728C157.845 58.92 158.043 59.1707 158.203 59.48C158.363 59.7893 158.464 60.1627 158.507 60.6C158.571 61.3253 158.512 61.9227 158.331 62.392C158.149 62.8613 157.867 63.2347 157.483 63.512C157.099 63.8 156.629 63.9973 156.075 64.104C155.52 64.2213 154.907 64.28 154.235 64.28C153.637 64.28 153.093 64.2267 152.603 64.12C152.112 64.024 151.68 63.8533 151.307 63.608C150.933 63.3627 150.619 63.0427 150.363 62.648C150.117 62.2427 149.941 61.736 149.835 61.128C149.739 60.5947 149.68 59.9493 149.659 59.192C149.637 58.4347 149.632 57.656 149.643 56.856C149.664 56.0453 149.696 55.2613 149.739 54.504C149.781 53.7467 149.829 53.1013 149.883 52.568C149.947 51.896 150.155 51.432 150.507 51.176C150.859 50.9093 151.339 50.776 151.947 50.776C152.555 50.776 153.04 50.9093 153.403 51.176C153.765 51.432 153.973 51.9013 154.027 52.584C154.048 52.808 154.064 53.0853 154.075 53.416C154.085 53.7467 154.091 54.0987 154.091 54.472C154.101 54.8453 154.107 55.224 154.107 55.608C154.107 55.992 154.096 56.3547 154.075 56.696C154.064 57.0267 154.043 57.32 154.011 57.576C153.989 57.832 153.963 58.0187 153.931 58.136ZM177.678 60.232C177.656 60.712 177.63 61.192 177.598 61.672C177.566 62.1413 177.523 62.6107 177.47 63.08C177.406 63.72 177.187 64.2 176.814 64.52C176.451 64.84 175.987 65 175.422 65C174.771 65 174.254 64.8187 173.87 64.456C173.486 64.0933 173.331 63.5493 173.406 62.824C173.619 61.096 173.726 59.3787 173.726 57.672C173.726 55.9653 173.624 54.2853 173.422 52.632C173.379 52.2373 173.4 51.896 173.486 51.608C173.571 51.3093 173.699 51.064 173.87 50.872C174.051 50.68 174.275 50.536 174.542 50.44C174.808 50.344 175.102 50.296 175.422 50.296C175.987 50.296 176.451 50.456 176.814 50.776C177.187 51.096 177.406 51.5867 177.47 52.248C177.512 52.6213 177.544 53 177.566 53.384C177.598 53.7573 177.624 54.1413 177.646 54.536L178.11 54.488C178.483 54.424 178.771 54.6213 178.974 55.08C179.176 55.5387 179.278 56.3013 179.278 57.368C179.278 58.4453 179.176 59.2133 178.974 59.672C178.771 60.1307 178.483 60.3387 178.11 60.296L177.678 60.232ZM168.718 55.944C168.899 56.328 168.99 56.6907 168.99 57.032C169 57.3733 168.942 57.7253 168.814 58.088C168.579 58.1733 168.382 58.2533 168.222 58.328C168.072 58.4027 167.918 58.488 167.758 58.584C167.704 58.616 167.672 58.6533 167.662 58.696C167.651 58.7387 167.656 58.7813 167.678 58.824C167.699 58.856 167.731 58.8827 167.774 58.904C167.827 58.9147 167.886 58.904 167.95 58.872C168.323 58.6587 168.734 58.4827 169.182 58.344C169.64 58.2053 170.115 58.136 170.606 58.136C171.331 58.136 171.896 58.344 172.302 58.76C172.707 59.1653 172.968 59.7787 173.086 60.6C173.214 61.4213 173.123 62.1093 172.814 62.664C172.504 63.2187 172.008 63.624 171.326 63.88C170.856 64.0613 170.344 64.1733 169.79 64.216C169.246 64.2587 168.696 64.28 168.142 64.28C167.63 64.28 167.182 64.2053 166.798 64.056C166.414 63.9173 166.083 63.7093 165.806 63.432C165.539 63.1653 165.32 62.84 165.15 62.456C164.99 62.0613 164.872 61.6187 164.798 61.128C164.712 60.5947 164.643 60.0293 164.59 59.432C164.547 58.824 164.526 58.2107 164.526 57.592C164.526 56.9733 164.547 56.3653 164.59 55.768C164.643 55.16 164.712 54.5893 164.798 54.056C164.958 53.0747 165.24 52.3333 165.646 51.832C166.051 51.3307 166.595 51.032 167.278 50.936C167.886 50.8507 168.478 50.808 169.054 50.808C169.63 50.808 170.216 50.84 170.814 50.904C171.486 50.9787 171.998 51.224 172.35 51.64C172.712 52.0453 172.894 52.6267 172.894 53.384C172.894 54.1627 172.723 54.7867 172.382 55.256C172.051 55.7147 171.528 55.944 170.814 55.944H168.718ZM180.049 63.448C180.049 62.776 180.246 62.2427 180.641 61.848C181.036 61.4533 181.553 61.256 182.193 61.256C182.844 61.256 183.356 61.4533 183.729 61.848C184.113 62.2427 184.305 62.776 184.305 63.448C184.305 63.7253 184.252 63.976 184.145 64.2C184.038 64.4347 183.889 64.6373 183.697 64.808C183.516 64.9787 183.292 65.112 183.025 65.208C182.769 65.304 182.492 65.352 182.193 65.352C181.873 65.352 181.58 65.304 181.313 65.208C181.057 65.112 180.833 64.9787 180.641 64.808C180.46 64.6373 180.316 64.4347 180.209 64.2C180.102 63.976 180.049 63.7253 180.049 63.448Z" fill="#7E8E0F"/>
</svg>
