<svg width="63" height="63" viewBox="0 0 63 63" fill="none" xmlns="http://www.w3.org/2000/svg">
<path d="M46.8489 14.0652C38.6481 5.97826 25.3519 5.97826 17.1511 14.0652C15.204 15.9722 13.6568 18.2501 12.6005 20.7651C11.5442 23.28 11 25.9813 11 28.7101C11 31.439 11.5442 34.1402 12.6005 36.6552C13.6568 39.1702 15.204 41.4481 17.1511 43.3551L31.9987 58L46.8489 43.3551C48.796 41.4481 50.3432 39.1702 51.3995 36.6552C52.4558 34.1402 53 31.439 53 28.7101C53 25.9813 52.4558 23.28 51.3995 20.7651C50.3432 18.2501 48.796 15.9722 46.8489 14.0652ZM31.9987 35.6313C30.2451 35.6313 28.5992 34.9471 27.3575 33.7049C26.1283 32.4701 25.4379 30.7968 25.4379 29.0522C25.4379 27.3077 26.1283 25.6344 27.3575 24.3996C28.5965 23.1574 30.2451 22.4732 31.9987 22.4732C33.7523 22.4732 35.4008 23.1574 36.6399 24.3996C37.8691 25.6344 38.5594 27.3077 38.5594 29.0522C38.5594 30.7968 37.8691 32.4701 36.6399 33.7049C35.4008 34.9471 33.7523 35.6313 31.9987 35.6313Z" fill="#BDCF46"/>
<path d="M47.3993 19.1928C47.0457 17.975 46.7333 16.7713 46.3046 15.5703C46.1205 15.05 45.9655 14.6731 45.9195 14.1191C45.8226 12.9463 46.2998 11.855 46.3627 10.6766C46.4402 9.29564 46.3094 7.88939 45.8662 6.59564C45.6313 5.91782 45.2414 5.2372 44.7522 4.79001C42.7154 2.91126 39.332 3.0547 37.317 4.8997C36.605 5.55501 36.3119 6.60689 35.7259 7.38314C35.1034 8.21001 29.8988 8.21001 29.2764 7.38314C28.6903 6.60689 28.3973 5.55501 27.6852 4.8997C25.6702 3.0547 22.2844 2.91126 20.2476 4.79001C19.7609 5.2372 19.3709 5.91782 19.1384 6.59564C18.6928 7.88939 18.562 9.29564 18.6371 10.6766C18.7049 11.855 19.1796 12.9463 19.0827 14.1191C19.0367 14.6731 18.8817 15.05 18.6976 15.5703C18.2666 16.7713 17.9566 17.9778 17.603 19.1928C16.501 22.9728 17.1113 27.8469 19.3176 30.9069C20.9815 33.2159 23.5002 34.8106 25.956 35.6516C28.0437 36.3688 30.2742 36.5544 32.4442 36.5544H32.5556C34.7256 36.5544 36.9562 36.3688 39.0438 35.6516C41.4972 34.8078 44.0184 33.2159 45.6822 30.9069C47.8885 27.8469 48.4988 22.9728 47.3993 19.1928Z" fill="#BDCF46"/>
<path d="M35.6533 12.7353C36.099 12.7241 36.5882 13.1206 36.4719 13.8603C36.3387 14.7153 35.1278 14.6 34.9946 13.7703C34.8832 13.0756 35.2537 12.7437 35.6533 12.7353ZM29.233 12.7353C29.6374 12.7437 30.0055 13.0756 29.8917 13.7703C29.7585 14.6 28.5476 14.7153 28.4144 13.8603C28.2981 13.1206 28.7873 12.7269 29.233 12.7353ZM21.5798 8.81187C21.5798 7.45625 22.3427 6.35938 23.2703 6.35938C24.2051 6.35938 24.9632 7.45625 24.9632 8.81187C24.9632 10.1647 24.2027 11.2644 23.2703 11.2644C22.3427 11.2644 21.5798 10.1647 21.5798 8.81187ZM41.616 11.2644C40.6836 11.2644 39.9231 10.1647 39.9231 8.81187C39.9231 7.45625 40.6836 6.35938 41.616 6.35938C42.5484 6.35938 43.3089 7.45625 43.3089 8.81187C43.3089 10.1647 42.5484 11.2644 41.616 11.2644Z" fill="#2F2F2F"/>
<path d="M32.4805 21.8675C26.312 21.8675 22.1052 17.2438 22.7131 15.7869C23.3186 14.3272 27.5544 17.4406 32.4781 17.4406C37.3896 17.4378 41.6279 14.3244 42.231 15.7869C42.8389 17.2466 38.6345 21.8675 32.4805 21.8675Z" fill="#ED6C30"/>
</svg>
