<svg width="63" height="63" viewBox="0 0 63 63" fill="none" xmlns="http://www.w3.org/2000/svg">
<path d="M46.8489 14.0652C38.6481 5.97826 25.3519 5.97826 17.1511 14.0652C15.204 15.9722 13.6568 18.2501 12.6005 20.7651C11.5442 23.28 11 25.9813 11 28.7101C11 31.439 11.5442 34.1402 12.6005 36.6552C13.6568 39.1702 15.204 41.4481 17.1511 43.3551L31.9987 58L46.8489 43.3551C48.796 41.4481 50.3432 39.1702 51.3995 36.6552C52.4558 34.1402 53 31.439 53 28.7101C53 25.9813 52.4558 23.28 51.3995 20.7651C50.3432 18.2501 48.796 15.9722 46.8489 14.0652ZM31.9987 35.6313C30.2451 35.6313 28.5992 34.9471 27.3575 33.7049C26.1283 32.4701 25.4379 30.7968 25.4379 29.0522C25.4379 27.3077 26.1283 25.6344 27.3575 24.3996C28.5965 23.1574 30.2451 22.4732 31.9987 22.4732C33.7523 22.4732 35.4008 23.1574 36.6399 24.3996C37.8691 25.6344 38.5594 27.3077 38.5594 29.0522C38.5594 30.7968 37.8691 32.4701 36.6399 33.7049C35.4008 34.9471 33.7523 35.6313 31.9987 35.6313Z" fill="#FB2A2A"/>
<path d="M32 40L30.405 38.5613C24.74 33.4714 21 30.1035 21 25.9946C21 22.6267 23.662 20 27.05 20C28.964 20 30.801 20.8828 32 22.267C33.199 20.8828 35.036 20 36.95 20C40.338 20 43 22.6267 43 25.9946C43 30.1035 39.26 33.4714 33.595 38.5613L32 40Z" fill="white"/>
</svg>
