<svg width="46" height="23" viewBox="0 0 46 23" fill="none" xmlns="http://www.w3.org/2000/svg">
<path d="M7.296 10.352V9.944C6.624 9.912 5.976 9.872 5.352 9.824C4.728 9.776 4.128 9.72 3.552 9.656C3.232 9.608 2.936 9.56 2.664 9.512C2.408 9.448 2.184 9.368 1.992 9.272C1.8 9.16 1.648 9.016 1.536 8.84C1.424 8.648 1.368 8.408 1.368 8.12C1.368 7.544 1.568 7.168 1.968 6.992C2.384 6.8 2.912 6.672 3.552 6.608C3.664 6.592 3.776 6.584 3.888 6.584C4 6.568 4.12 6.552 4.248 6.536C4.152 6.024 4.12 5.424 4.152 4.736C4.056 4.72 3.952 4.712 3.84 4.712C3.744 4.696 3.648 4.68 3.552 4.664C3.232 4.632 2.936 4.592 2.664 4.544C2.408 4.48 2.184 4.4 1.992 4.304C1.8 4.192 1.648 4.048 1.536 3.872C1.424 3.68 1.368 3.44 1.368 3.152C1.368 2.864 1.424 2.632 1.536 2.456C1.648 2.264 1.8 2.112 1.992 2C2.184 1.888 2.408 1.808 2.664 1.76C2.936 1.696 3.232 1.648 3.552 1.616C4.736 1.488 6.008 1.4 7.368 1.352C8.728 1.288 10.072 1.256 11.4 1.256C12.712 1.256 14.048 1.288 15.408 1.352C16.784 1.4 18.064 1.488 19.248 1.616C19.568 1.648 19.856 1.696 20.112 1.76C20.384 1.808 20.616 1.888 20.808 2C21 2.112 21.152 2.264 21.264 2.456C21.376 2.632 21.432 2.864 21.432 3.152C21.432 3.44 21.376 3.68 21.264 3.872C21.152 4.048 21 4.192 20.808 4.304C20.616 4.4 20.384 4.48 20.112 4.544C19.856 4.592 19.568 4.632 19.248 4.664C19.12 4.68 18.992 4.696 18.864 4.712C18.752 4.712 18.632 4.72 18.504 4.736C18.52 5.328 18.48 5.92 18.384 6.512C18.528 6.528 18.672 6.544 18.816 6.56C18.96 6.576 19.104 6.592 19.248 6.608C19.568 6.64 19.856 6.68 20.112 6.728C20.384 6.776 20.616 6.856 20.808 6.968C21 7.064 21.152 7.208 21.264 7.4C21.376 7.576 21.432 7.816 21.432 8.12C21.432 8.408 21.376 8.648 21.264 8.84C21.152 9.016 21 9.16 20.808 9.272C20.616 9.368 20.384 9.448 20.112 9.512C19.856 9.56 19.568 9.608 19.248 9.656C18.656 9.72 18.04 9.776 17.4 9.824C16.76 9.872 16.104 9.912 15.432 9.944V10.352V10.808C16.2 10.776 16.952 10.752 17.688 10.736C18.44 10.704 19.176 10.664 19.896 10.616C20.6 10.584 21.144 10.728 21.528 11.048C21.928 11.368 22.128 11.76 22.128 12.224C22.128 12.768 21.928 13.176 21.528 13.448C21.144 13.704 20.592 13.856 19.872 13.904C18.544 14 17.152 14.072 15.696 14.12C14.24 14.168 12.768 14.192 11.28 14.192C9.808 14.192 8.352 14.168 6.912 14.12C5.472 14.072 4.112 14 2.832 13.904C2.144 13.84 1.6 13.68 1.2 13.424C0.816 13.168 0.624 12.768 0.624 12.224C0.624 11.76 0.816 11.368 1.2 11.048C1.6 10.728 2.144 10.584 2.832 10.616C4.208 10.712 5.696 10.784 7.296 10.832V10.352ZM11.4 6.224H12.432C12.432 6.016 12.432 5.824 12.432 5.648C12.432 5.456 12.448 5.256 12.48 5.048H11.4H10.176C10.224 5.464 10.248 5.856 10.248 6.224H11.4ZM1.224 20.768C1.224 20.048 1.488 19.504 2.016 19.136C2.56 18.768 3.256 18.552 4.104 18.488C4.856 18.408 5.576 18.32 6.264 18.224C6.968 18.128 7.704 17.944 8.472 17.672C8.552 17.64 8.6 17.592 8.616 17.528C8.648 17.448 8.656 17.376 8.64 17.312C8.624 17.232 8.584 17.176 8.52 17.144C8.456 17.096 8.384 17.088 8.304 17.12C7.6 17.344 6.872 17.528 6.12 17.672C5.368 17.816 4.616 17.904 3.864 17.936C2.984 17.968 2.36 17.816 1.992 17.48C1.624 17.144 1.44 16.696 1.44 16.136C1.44 15.624 1.6 15.216 1.92 14.912C2.256 14.592 2.752 14.464 3.408 14.528C4.64 14.608 5.928 14.672 7.272 14.72C8.632 14.768 10 14.792 11.376 14.792C12.752 14.792 14.112 14.768 15.456 14.72C16.816 14.672 18.112 14.608 19.344 14.528C20.016 14.464 20.504 14.56 20.808 14.816C21.128 15.072 21.288 15.44 21.288 15.92C21.288 16.304 21.152 16.632 20.88 16.904C20.608 17.176 20.256 17.32 19.824 17.336C18.48 17.368 17.2 17.56 15.984 17.912C14.784 18.248 13.76 18.712 12.912 19.304C12.832 19.352 12.784 19.416 12.768 19.496C12.752 19.576 12.752 19.648 12.768 19.712C12.8 19.76 12.848 19.792 12.912 19.808C12.992 19.824 13.08 19.808 13.176 19.76C13.928 19.312 14.744 18.92 15.624 18.584C16.504 18.248 17.432 18.064 18.408 18.032C19.368 18 20.12 18.192 20.664 18.608C21.208 19.024 21.48 19.592 21.48 20.312C21.48 21.08 21.2 21.624 20.64 21.944C20.08 22.28 19.256 22.488 18.168 22.568C17 22.648 15.8 22.704 14.568 22.736C13.352 22.768 12.128 22.784 10.896 22.784C9.68 22.784 8.48 22.76 7.296 22.712C6.112 22.68 4.968 22.624 3.864 22.544C3.032 22.496 2.384 22.344 1.92 22.088C1.456 21.848 1.224 21.408 1.224 20.768ZM43.3007 11.192C43.2847 11.32 43.2687 11.456 43.2527 11.6C43.2527 11.728 43.2367 11.856 43.2047 11.984C43.0767 12.8 42.7407 13.392 42.1967 13.76C41.6687 14.128 40.9727 14.312 40.1087 14.312C38.1247 14.312 37.2047 13.44 37.3487 11.696C37.4767 10.368 37.5167 9.032 37.4687 7.688C37.4207 6.328 37.3167 5.024 37.1567 3.776C37.0287 2.784 37.2447 2.064 37.8047 1.616C38.3647 1.168 39.1327 0.943999 40.1087 0.943999C40.9727 0.943999 41.6687 1.136 42.1967 1.52C42.7407 1.888 43.0767 2.48 43.2047 3.296C43.2207 3.424 43.2367 3.552 43.2527 3.68C43.2687 3.808 43.2847 3.936 43.3007 4.064L43.8047 4.016C44.3647 3.952 44.7967 4.208 45.1007 4.784C45.4047 5.36 45.5567 6.312 45.5567 7.64C45.5567 8.952 45.4047 9.896 45.1007 10.472C44.7967 11.048 44.3647 11.304 43.8047 11.24L43.3007 11.192ZM24.1967 4.76C23.7807 4.744 23.4447 4.632 23.1887 4.424C22.9327 4.2 22.8047 3.856 22.8047 3.392C22.8047 3.072 22.8847 2.8 23.0447 2.576C23.2047 2.352 23.4127 2.168 23.6687 2.024C23.9407 1.864 24.2447 1.744 24.5807 1.664C24.9167 1.568 25.2607 1.504 25.6127 1.472C26.2047 1.408 26.8527 1.36 27.5567 1.328C28.2767 1.296 28.9967 1.28 29.7167 1.28C30.4527 1.28 31.1727 1.296 31.8767 1.328C32.5967 1.36 33.2607 1.408 33.8687 1.472C34.2207 1.504 34.5647 1.568 34.9007 1.664C35.2367 1.744 35.5327 1.864 35.7887 2.024C36.0447 2.168 36.2527 2.352 36.4127 2.576C36.5727 2.8 36.6527 3.072 36.6527 3.392C36.6527 3.888 36.5247 4.248 36.2687 4.472C36.0287 4.68 35.6767 4.792 35.2127 4.808C35.5167 5.144 35.7647 5.52 35.9567 5.936C36.1647 6.336 36.3327 6.744 36.4607 7.16C36.6047 7.576 36.7087 7.992 36.7727 8.408C36.8527 8.808 36.9087 9.176 36.9407 9.512C37.0207 10.36 37.0447 11.064 37.0127 11.624C36.9807 12.184 36.8927 12.632 36.7487 12.968C36.6047 13.304 36.3967 13.544 36.1247 13.688C35.8687 13.816 35.5647 13.88 35.2127 13.88C34.8447 13.88 34.5407 13.84 34.3007 13.76C34.0607 13.664 33.8687 13.536 33.7247 13.376C33.5967 13.2 33.5007 13 33.4367 12.776C33.3887 12.536 33.3647 12.272 33.3647 11.984C33.3967 10.912 33.2927 9.952 33.0527 9.104C32.8127 8.24 32.3807 7.52 31.7567 6.944C31.7087 6.88 31.6367 6.84 31.5407 6.824C31.4607 6.808 31.3967 6.824 31.3487 6.872C31.2687 6.936 31.2367 7.016 31.2527 7.112C31.2847 7.192 31.3327 7.264 31.3967 7.328C31.7167 7.68 32.0047 8.144 32.2607 8.72C32.5327 9.28 32.6687 9.96 32.6687 10.76C32.6687 11.176 32.6207 11.576 32.5247 11.96C32.4447 12.328 32.3087 12.656 32.1167 12.944C31.9247 13.232 31.6847 13.464 31.3967 13.64C31.1087 13.8 30.7647 13.88 30.3647 13.88C29.9967 13.88 29.6927 13.832 29.4527 13.736C29.2287 13.64 29.0527 13.512 28.9247 13.352C28.8127 13.176 28.7327 12.976 28.6847 12.752C28.6527 12.512 28.6367 12.256 28.6367 11.984C28.6687 10.912 28.5567 9.936 28.3007 9.056C28.0447 8.176 27.6207 7.464 27.0287 6.92C26.8847 6.776 26.7407 6.76 26.5967 6.872C26.5167 6.936 26.4927 7.016 26.5247 7.112C26.5567 7.192 26.5967 7.264 26.6447 7.328C26.9807 7.696 27.2767 8.176 27.5327 8.768C27.8047 9.344 27.9407 10.008 27.9407 10.76C27.9407 11.688 27.7647 12.44 27.4127 13.016C27.0767 13.592 26.4607 13.88 25.5647 13.88C25.1007 13.88 24.7007 13.776 24.3647 13.568C24.0287 13.344 23.7487 13.048 23.5247 12.68C23.3167 12.296 23.1647 11.856 23.0687 11.36C22.9727 10.864 22.9327 10.336 22.9487 9.776C22.9647 9.424 22.9807 9.032 22.9967 8.6C23.0127 8.168 23.0607 7.728 23.1407 7.28C23.2207 6.816 23.3407 6.368 23.5007 5.936C23.6767 5.504 23.9087 5.112 24.1967 4.76ZM34.2527 17.384C33.3407 18.2 32.3247 18.856 31.2047 19.352C30.1007 19.832 28.9247 20.056 27.6767 20.024C26.5247 19.992 25.6207 19.816 24.9647 19.496C24.3247 19.16 23.9727 18.616 23.9087 17.864C23.8767 17.48 23.9487 17.136 24.1247 16.832C24.3167 16.528 24.5887 16.256 24.9407 16.016C25.3087 15.776 25.7487 15.576 26.2607 15.416C26.7887 15.24 27.3727 15.104 28.0127 15.008C28.8767 14.864 29.7887 14.744 30.7487 14.648C31.7087 14.536 32.6687 14.456 33.6287 14.408C34.5887 14.36 35.5247 14.36 36.4367 14.408C37.3647 14.44 38.2287 14.536 39.0287 14.696C40.1807 14.92 41.0927 15.232 41.7647 15.632C42.4367 16.032 42.8927 16.48 43.1327 16.976C43.2927 17.312 43.3967 17.664 43.4447 18.032C43.5087 18.4 43.5167 18.76 43.4687 19.112C43.4367 19.464 43.3567 19.8 43.2287 20.12C43.1007 20.44 42.9327 20.704 42.7247 20.912C42.2287 21.424 41.6047 21.864 40.8527 22.232C40.1007 22.6 39.1007 22.792 37.8527 22.808C36.5567 22.84 35.5407 22.64 34.8047 22.208C34.0847 21.792 33.6127 21.264 33.3887 20.624C33.2127 20.128 33.2607 19.624 33.5327 19.112C33.8047 18.6 34.2127 18.088 34.7567 17.576C34.8527 17.464 34.8207 17.384 34.6607 17.336C34.5167 17.288 34.3807 17.304 34.2527 17.384Z" fill="#BDCF46"/>
</svg>
