<svg width="309" height="51" viewBox="0 0 309 51" fill="none" xmlns="http://www.w3.org/2000/svg">
<path d="M12.2179 46.828C10.8739 46.828 9.61388 46.54 8.43788 45.964C7.26188 45.364 6.18188 44.512 5.19788 43.408C4.23788 42.28 3.39788 40.948 2.67788 39.412C2.43788 38.764 2.19788 38.02 1.95788 37.18C1.74188 36.316 1.53788 35.392 1.34588 34.408C1.15388 33.4 0.985875 32.368 0.841875 31.312C0.697875 30.256 0.565875 29.2 0.445875 28.144C0.349875 27.088 0.265875 26.056 0.193875 25.048C0.145875 24.016 0.121875 23.068 0.121875 22.204C0.121875 17.404 0.805875 13.6 2.17387 10.792C3.54188 7.96 5.70188 5.932 8.65388 4.708C11.6059 3.484 15.4579 2.872 20.2099 2.872C23.3539 2.872 26.3539 3.148 29.2099 3.7C32.0659 4.252 34.6099 5.152 36.8419 6.4C39.0739 7.624 40.8379 9.22 42.1339 11.188C43.4299 13.156 44.0779 15.568 44.0779 18.424C44.0779 20.56 43.6819 22.444 42.8899 24.076C42.0979 25.708 40.9699 27.076 39.5059 28.18C38.0659 29.26 36.3499 30.088 34.3579 30.664C32.3659 31.24 30.1819 31.564 27.8059 31.636C26.2699 31.684 24.8659 31.612 23.5939 31.42C22.3219 31.228 21.1699 31.132 20.1379 31.132C19.3459 31.132 18.8539 31.408 18.6619 31.96C18.4699 32.512 18.3739 33.268 18.3739 34.228C18.3739 34.54 18.3739 34.888 18.3739 35.272C18.3739 35.656 18.3859 36.064 18.4099 36.496C18.4339 36.904 18.4579 37.324 18.4819 37.756C18.5059 38.188 18.5179 38.596 18.5179 38.98C18.5419 39.34 18.5539 39.676 18.5539 39.988C18.5539 42.244 18.0499 43.948 17.0419 45.1C16.0339 46.252 14.4259 46.828 12.2179 46.828ZM20.2819 22.924C21.1699 22.924 22.0579 22.864 22.9459 22.744C23.8339 22.624 24.6619 22.444 25.4299 22.204C26.2219 21.94 26.9179 21.604 27.5179 21.196C28.1179 20.788 28.5859 20.308 28.9219 19.756C29.2819 19.18 29.4619 18.532 29.4619 17.812C29.4619 16.996 29.3059 16.312 28.9939 15.76C28.7059 15.184 28.3099 14.704 27.8059 14.32C27.3259 13.912 26.7859 13.6 26.1859 13.384C25.5859 13.144 24.9739 12.976 24.3499 12.88C23.7499 12.76 23.1979 12.7 22.6939 12.7C21.7819 12.7 20.9659 12.772 20.2459 12.916C19.5499 13.06 18.9499 13.276 18.4459 13.564C17.9659 13.852 17.5939 14.248 17.3299 14.752C17.0899 15.232 16.9699 15.832 16.9699 16.552C16.9699 17.368 17.0059 18.112 17.0779 18.784C17.1499 19.456 17.2579 20.056 17.4019 20.584C17.5699 21.088 17.7859 21.52 18.0499 21.88C18.3139 22.216 18.6259 22.48 18.9859 22.672C19.3699 22.84 19.8019 22.924 20.2819 22.924ZM70.0659 48.088C67.0659 48.088 64.1739 47.764 61.3899 47.116C58.6059 46.468 56.1099 45.46 53.9019 44.092C51.7179 42.7 49.9779 40.9 48.6819 38.692C47.4099 36.46 46.7739 33.76 46.7739 30.592C46.7739 27.112 47.3859 24.04 48.6099 21.376C49.8339 18.688 51.5259 16.432 53.6859 14.608C55.8699 12.784 58.3899 11.416 61.2459 10.504C64.1019 9.568 67.1739 9.1 70.4619 9.1C73.6299 9.1 76.6059 9.496 79.3899 10.288C82.1739 11.056 84.6339 12.244 86.7699 13.852C88.9059 15.436 90.5739 17.452 91.7739 19.9C92.9979 22.348 93.6099 25.252 93.6099 28.612C93.6099 31.3 92.9859 33.82 91.7379 36.172C90.5139 38.524 88.8219 40.588 86.6619 42.364C84.5019 44.14 82.0059 45.532 79.1739 46.54C76.3419 47.572 73.3059 48.088 70.0659 48.088ZM69.3099 34.624C70.8219 34.624 72.1059 34.408 73.1619 33.976C74.2179 33.52 75.0819 32.908 75.7539 32.14C76.4499 31.372 76.9539 30.532 77.2659 29.62C77.6019 28.708 77.7699 27.784 77.7699 26.848C77.7699 25.648 77.5299 24.628 77.0499 23.788C76.5699 22.924 75.9219 22.228 75.1059 21.7C74.3139 21.172 73.4259 20.788 72.4419 20.548C71.4579 20.284 70.4499 20.152 69.4179 20.152C68.0019 20.152 66.6939 20.44 65.4939 21.016C64.2939 21.568 63.3339 22.408 62.6139 23.536C61.8939 24.64 61.5339 26.02 61.5339 27.676C61.5339 29.092 61.8459 30.328 62.4699 31.384C63.0939 32.416 63.9819 33.22 65.1339 33.796C66.3099 34.348 67.7019 34.624 69.3099 34.624ZM114.95 48.016C112.094 48.016 109.73 47.548 107.858 46.612C105.986 45.7 104.498 44.272 103.394 42.328C102.314 40.384 101.522 37.888 101.018 34.84C100.778 33.784 100.562 32.56 100.37 31.168C100.202 29.776 100.058 28.312 99.9381 26.776C99.8421 25.216 99.7581 23.692 99.6861 22.204C99.6141 20.716 99.5661 19.36 99.5421 18.136C99.5181 16.888 99.5181 15.868 99.5421 15.076C99.5901 12.028 99.8181 9.424 100.226 7.264C100.634 5.104 101.402 3.46 102.53 2.332C103.682 1.204 105.35 0.639996 107.534 0.639996C110.198 0.639996 112.034 1.396 113.042 2.908C114.05 4.42 114.554 6.832 114.554 10.144C114.554 10.72 114.53 11.476 114.482 12.412C114.458 13.324 114.422 14.344 114.374 15.472C114.326 16.6 114.278 17.788 114.23 19.036C114.182 20.26 114.134 21.472 114.086 22.672C114.038 23.848 113.99 24.964 113.942 26.02C113.918 27.076 113.906 27.988 113.906 28.756C113.906 30.484 113.978 31.948 114.122 33.148C114.29 34.348 114.53 35.32 114.842 36.064C115.178 36.808 115.586 37.348 116.066 37.684C116.546 38.02 117.098 38.188 117.722 38.188C118.49 38.188 119.222 38.032 119.918 37.72C120.614 37.408 121.298 37.096 121.97 36.784C122.642 36.448 123.338 36.28 124.058 36.28C124.946 36.28 125.654 36.616 126.182 37.288C126.734 37.936 127.01 38.824 127.01 39.952C127.01 41.176 126.626 42.292 125.858 43.3C125.114 44.284 124.13 45.136 122.906 45.856C121.682 46.552 120.374 47.08 118.982 47.44C117.59 47.824 116.246 48.016 114.95 48.016ZM149.614 48.052C146.638 48.052 143.77 47.848 141.01 47.44C138.274 47.032 136.03 46.348 134.278 45.388C133.03 44.764 132.082 44.008 131.434 43.12C130.786 42.208 130.462 41.188 130.462 40.06C130.462 38.716 130.81 37.396 131.506 36.1C132.202 34.78 133.246 33.508 134.638 32.284C135.526 31.492 136.558 30.604 137.734 29.62C138.934 28.636 140.194 27.604 141.514 26.524C142.834 25.444 144.142 24.376 145.438 23.32C146.734 22.264 147.946 21.268 149.074 20.332C150.226 19.372 151.21 18.544 152.026 17.848C152.914 17.104 153.574 16.492 154.006 16.012C154.438 15.532 154.654 15.136 154.654 14.824C154.654 14.464 154.402 14.212 153.898 14.068C153.394 13.9 152.65 13.816 151.666 13.816C151.114 13.816 150.382 13.864 149.47 13.96C148.582 14.056 147.598 14.164 146.518 14.284C145.462 14.404 144.418 14.512 143.386 14.608C142.354 14.704 141.418 14.752 140.578 14.752C138.442 14.752 136.69 14.596 135.322 14.284C133.954 13.972 132.934 13.468 132.262 12.772C131.614 12.052 131.29 11.092 131.29 9.892C131.29 8.284 131.806 6.964 132.838 5.932C133.894 4.876 135.322 4.048 137.122 3.448C138.946 2.848 141.046 2.428 143.422 2.188C145.822 1.924 148.366 1.792 151.054 1.792C153.646 1.792 156.058 1.876 158.29 2.044C160.522 2.212 162.478 2.464 164.158 2.8C165.838 3.112 167.146 3.52 168.082 4.024C169.498 4.744 170.554 5.596 171.25 6.58C171.97 7.564 172.33 8.68 172.33 9.928C172.33 11.056 172.054 12.136 171.502 13.168C170.95 14.176 170.254 15.148 169.414 16.084C168.574 17.02 167.698 17.908 166.786 18.748C166.282 19.276 165.67 19.9 164.95 20.62C164.23 21.316 163.45 22.096 162.61 22.96C161.794 23.8 160.93 24.664 160.018 25.552C159.13 26.44 158.242 27.328 157.354 28.216C156.49 29.08 155.674 29.884 154.906 30.628C153.778 31.636 152.962 32.428 152.458 33.004C151.954 33.556 151.702 34 151.702 34.336C151.702 34.528 151.834 34.696 152.098 34.84C152.362 34.96 152.842 35.056 153.538 35.128C154.234 35.2 155.206 35.236 156.454 35.236C157.39 35.236 158.434 35.176 159.586 35.056C160.762 34.912 161.914 34.78 163.042 34.66C164.194 34.516 165.166 34.444 165.958 34.444C167.038 34.444 168.022 34.6 168.91 34.912C169.822 35.2 170.554 35.704 171.106 36.424C171.682 37.12 171.97 38.128 171.97 39.448C171.97 40.6 171.514 41.644 170.602 42.58C169.714 43.492 168.502 44.296 166.966 44.992C165.43 45.664 163.69 46.228 161.746 46.684C159.802 47.14 157.786 47.476 155.698 47.692C153.634 47.932 151.606 48.052 149.614 48.052ZM196.981 47.692C194.293 47.692 191.557 47.596 188.773 47.404C185.989 47.212 183.565 46.792 181.501 46.144C179.533 45.568 178.069 44.74 177.109 43.66C176.173 42.58 175.705 41.128 175.705 39.304C175.705 38.488 175.861 37.588 176.173 36.604C176.485 35.62 177.049 34.6 177.865 33.544C178.705 32.488 179.929 31.48 181.537 30.52C182.329 30.04 183.181 29.512 184.093 28.936C185.029 28.36 185.989 27.772 186.973 27.172C187.981 26.548 188.965 25.96 189.925 25.408C190.885 24.832 191.809 24.304 192.697 23.824C193.585 23.32 194.377 22.9 195.073 22.564C196.465 21.988 197.329 21.52 197.665 21.16C198.001 20.8 198.169 20.476 198.169 20.188C198.169 19.852 197.917 19.636 197.413 19.54C196.909 19.444 196.237 19.396 195.397 19.396C194.437 19.396 193.393 19.432 192.265 19.504C191.161 19.576 190.033 19.66 188.881 19.756C187.729 19.852 186.625 19.936 185.569 20.008C184.537 20.08 183.601 20.116 182.761 20.116C181.849 20.116 181.021 19.972 180.277 19.684C179.557 19.372 178.981 18.916 178.549 18.316C178.117 17.716 177.901 16.984 177.901 16.12C177.901 15.016 178.333 14.092 179.197 13.348C180.061 12.604 181.213 12.004 182.653 11.548C184.117 11.092 185.725 10.732 187.477 10.468C189.229 10.204 190.993 10.012 192.769 9.892C193.657 9.82 194.641 9.76 195.721 9.712C196.825 9.64 197.965 9.58 199.141 9.532C200.317 9.46 201.445 9.412 202.525 9.388C203.605 9.364 204.565 9.352 205.405 9.352C208.837 9.352 211.297 9.928 212.785 11.08C214.273 12.208 215.017 13.768 215.017 15.76C215.017 17.248 214.609 18.7 213.793 20.116C213.001 21.508 211.573 22.852 209.509 24.148C208.285 24.94 206.965 25.78 205.549 26.668C204.157 27.556 202.765 28.42 201.373 29.26C200.005 30.1 198.745 30.868 197.593 31.564C196.441 32.236 195.493 32.776 194.749 33.184C193.957 33.592 193.417 33.952 193.129 34.264C192.865 34.576 192.733 34.912 192.733 35.272C192.733 35.632 192.925 35.908 193.309 36.1C193.717 36.268 194.353 36.388 195.217 36.46C196.081 36.508 197.233 36.532 198.673 36.532C200.449 36.532 202.165 36.472 203.821 36.352C205.501 36.232 207.277 36.172 209.149 36.172C210.973 36.172 212.353 36.568 213.289 37.36C214.249 38.128 214.729 39.196 214.729 40.564C214.729 41.884 214.261 43 213.325 43.912C212.389 44.8 211.105 45.52 209.473 46.072C207.841 46.648 205.957 47.056 203.821 47.296C201.685 47.56 199.405 47.692 196.981 47.692ZM236.297 50.536C234.257 50.536 232.253 50.344 230.285 49.96C228.317 49.6 226.541 48.976 224.957 48.088C223.397 47.224 222.149 46.06 221.213 44.596C220.277 43.132 219.809 41.32 219.809 39.16C219.809 37.024 220.349 35.248 221.429 33.832C222.533 32.416 224.009 31.288 225.857 30.448C227.705 29.608 229.793 29.02 232.121 28.684C234.473 28.324 236.897 28.144 239.393 28.144C240.017 28.144 240.641 28.168 241.265 28.216C241.889 28.24 242.465 28.276 242.993 28.324C243.521 28.348 243.941 28.36 244.253 28.36C244.805 28.36 245.177 28.276 245.369 28.108C245.585 27.916 245.693 27.604 245.693 27.172C245.693 26.716 245.633 26.308 245.513 25.948C245.393 25.588 245.225 25.264 245.009 24.976C244.793 24.688 244.529 24.448 244.217 24.256C243.641 23.848 242.909 23.548 242.021 23.356C241.133 23.164 240.161 23.068 239.105 23.068C237.761 23.068 236.429 23.212 235.109 23.5C233.789 23.788 232.481 24.076 231.185 24.364C229.913 24.652 228.629 24.796 227.333 24.796C225.125 24.796 223.409 24.436 222.185 23.716C220.961 22.972 220.349 21.832 220.349 20.296C220.349 18.856 220.841 17.596 221.825 16.516C222.809 15.412 224.141 14.512 225.821 13.816C227.501 13.096 229.385 12.568 231.473 12.232C233.585 11.872 235.745 11.692 237.953 11.692C242.537 11.692 246.401 12.172 249.545 13.132C252.689 14.092 255.077 15.748 256.709 18.1C258.365 20.428 259.193 23.656 259.193 27.784C259.193 28.696 259.145 29.5 259.049 30.196C258.977 30.892 258.881 31.504 258.761 32.032C258.665 32.536 258.569 32.992 258.473 33.4C258.401 33.808 258.365 34.192 258.365 34.552C258.365 35.224 258.593 35.884 259.049 36.532C259.529 37.18 260.069 37.852 260.669 38.548C261.293 39.244 261.833 40 262.289 40.816C262.745 41.632 262.973 42.556 262.973 43.588C262.973 45.1 262.481 46.216 261.497 46.936C260.537 47.656 259.421 48.016 258.149 48.016C257.141 48.016 256.337 47.764 255.737 47.26C255.137 46.756 254.621 46.252 254.189 45.748C253.757 45.244 253.277 44.992 252.749 44.992C252.365 44.992 251.933 45.112 251.453 45.352C250.997 45.592 250.457 45.928 249.833 46.36C249.089 46.864 248.117 47.44 246.917 48.088C245.741 48.76 244.289 49.336 242.561 49.816C240.833 50.296 238.745 50.536 236.297 50.536ZM237.521 41.68C238.409 41.68 239.285 41.56 240.149 41.32C241.013 41.056 241.805 40.696 242.525 40.24C243.245 39.76 243.821 39.196 244.253 38.548C244.685 37.9 244.901 37.18 244.901 36.388C244.901 35.788 244.709 35.344 244.325 35.056C243.941 34.768 243.377 34.564 242.633 34.444C241.913 34.324 241.025 34.264 239.969 34.264C238.769 34.264 237.617 34.396 236.513 34.66C235.409 34.9 234.497 35.32 233.777 35.92C233.081 36.52 232.733 37.348 232.733 38.404C232.733 39.172 232.937 39.796 233.345 40.276C233.777 40.756 234.353 41.116 235.073 41.356C235.793 41.572 236.609 41.68 237.521 41.68ZM274.378 47.728C272.65 47.728 271.318 47.32 270.382 46.504C269.446 45.688 268.798 44.548 268.438 43.084C268.078 41.62 267.898 39.916 267.898 37.972C267.898 36.892 267.958 35.632 268.078 34.192C268.222 32.752 268.39 31.18 268.582 29.476C268.798 27.748 269.026 25.96 269.266 24.112C269.53 22.168 269.818 20.308 270.13 18.532C270.466 16.756 270.802 15.1 271.138 13.564C271.474 12.004 271.834 10.6 272.218 9.352C272.626 8.08 273.022 7 273.406 6.112C274.246 4.336 275.242 2.944 276.394 1.936C277.546 0.927998 278.902 0.423999 280.462 0.423999C282.55 0.423999 283.942 1.12 284.638 2.512C285.358 3.904 285.718 5.788 285.718 8.164C285.718 8.836 285.694 9.544 285.646 10.288C285.622 11.032 285.574 11.8 285.502 12.592C285.43 13.384 285.346 14.176 285.25 14.968C285.178 15.736 285.106 16.504 285.034 17.272C284.962 18.016 284.902 18.736 284.854 19.432C284.83 20.104 284.818 20.74 284.818 21.34C284.818 22.108 284.866 22.768 284.962 23.32C285.058 23.848 285.238 24.112 285.502 24.112C285.79 24.112 286.102 23.992 286.438 23.752C286.798 23.512 287.158 23.176 287.518 22.744C287.83 22.408 288.214 22 288.67 21.52C289.126 21.04 289.63 20.524 290.182 19.972C290.734 19.396 291.286 18.844 291.838 18.316C292.414 17.764 292.954 17.26 293.458 16.804C293.986 16.348 294.442 15.988 294.826 15.724C295.594 15.22 296.446 14.836 297.382 14.572C298.342 14.284 299.266 14.14 300.154 14.14C301.762 14.14 303.07 14.548 304.078 15.364C305.086 16.18 305.59 17.284 305.59 18.676C305.59 19.636 305.29 20.632 304.69 21.664C304.114 22.696 303.202 23.656 301.954 24.544C300.97 25.384 300.034 26.14 299.146 26.812C298.282 27.46 297.49 28.12 296.77 28.792C296.098 29.368 295.762 29.848 295.762 30.232C295.762 30.448 295.858 30.664 296.05 30.88C296.266 31.072 296.566 31.264 296.95 31.456C297.478 31.792 298.15 32.212 298.966 32.716C299.806 33.22 300.694 33.772 301.63 34.372C302.59 34.948 303.514 35.548 304.402 36.172C305.29 36.796 306.058 37.396 306.706 37.972C307.282 38.5 307.738 39.052 308.074 39.628C308.434 40.204 308.614 40.828 308.614 41.5C308.614 42.46 308.338 43.372 307.786 44.236C307.234 45.1 306.49 45.796 305.554 46.324C304.618 46.852 303.55 47.116 302.35 47.116C301.246 47.116 300.226 46.9 299.29 46.468C298.378 46.036 297.514 45.448 296.698 44.704C295.858 44.032 294.946 43.264 293.962 42.4C293.002 41.536 292.006 40.612 290.974 39.628C289.942 38.62 288.922 37.66 287.914 36.748C287.362 36.196 286.834 35.728 286.33 35.344C285.826 34.96 285.31 34.768 284.782 34.768C284.23 34.768 283.798 34.936 283.486 35.272C283.174 35.608 282.958 36.028 282.838 36.532C282.382 38.212 281.95 39.664 281.542 40.888C281.158 42.088 280.762 43.108 280.354 43.948C279.658 45.268 278.854 46.228 277.942 46.828C277.054 47.428 275.866 47.728 274.378 47.728Z" fill="#4CF499"/>
</svg>
