<svg width="128" height="128" viewBox="0 0 128 128" fill="none" xmlns="http://www.w3.org/2000/svg">
<path d="M125.52 61.13C124.06 56.8 122.77 52.52 121 48.25C120.24 46.4 119.6 45.06 119.41 43.09C119.01 38.92 120.98 35.04 121.24 30.85C121.56 25.94 121.02 20.94 119.19 16.34C118.22 13.93 116.61 11.51 114.59 9.92002C106.18 3.24002 92.21 3.75002 83.89 10.31C80.95 12.64 79.74 16.38 77.32 19.14C74.75 22.08 53.26 22.08 50.69 19.14C48.27 16.38 47.06 12.64 44.12 10.31C35.8 3.75002 21.82 3.24002 13.41 9.92002C11.4 11.51 9.79001 13.93 8.83001 16.34C6.99001 20.94 6.45001 25.94 6.76001 30.85C7.04001 35.04 9.00001 38.92 8.60001 43.09C8.41001 45.06 7.77001 46.4 7.01001 48.25C5.23001 52.52 3.95001 56.81 2.49001 61.13C-2.05999 74.57 0.460012 91.9 9.57001 102.78C16.44 110.99 26.84 116.66 36.98 119.65C45.6 122.2 54.81 122.86 63.77 122.86H64.23C73.19 122.86 82.4 122.2 91.02 119.65C101.15 116.65 111.56 110.99 118.43 102.78C127.54 91.9 130.06 74.57 125.52 61.13Z" fill="#BDCF46"/>
<path d="M125.52 61.13C124.06 56.8 122.77 52.52 121 48.25C120.24 46.4 119.6 45.06 119.41 43.09C119.01 38.92 120.98 35.04 121.24 30.85C121.56 25.94 121.02 20.94 119.19 16.34C118.22 13.93 116.61 11.51 114.59 9.92002C106.18 3.24002 92.21 3.75002 83.89 10.31C80.95 12.64 79.74 16.38 77.32 19.14C74.75 22.08 53.26 22.08 50.69 19.14C48.27 16.38 47.06 12.64 44.12 10.31C35.8 3.75002 21.82 3.24002 13.41 9.92002C11.4 11.51 9.79001 13.93 8.83001 16.34C6.99001 20.94 6.45001 25.94 6.76001 30.85C7.04001 35.04 9.00001 38.92 8.60001 43.09C8.41001 45.06 7.77001 46.4 7.01001 48.25C5.23001 52.52 3.95001 56.81 2.49001 61.13C-2.05999 74.57 0.460012 91.9 9.57001 102.78C16.44 110.99 26.84 116.66 36.98 119.65C45.6 122.2 54.81 122.86 63.77 122.86H64.23C73.19 122.86 82.4 122.2 91.02 119.65C101.15 116.65 111.56 110.99 118.43 102.78C127.54 91.9 130.06 74.57 125.52 61.13Z" fill="#BDCF46"/>
<path d="M77.02 38.17C78.86 38.13 80.88 39.54 80.4 42.17C79.85 45.21 74.85 44.8 74.3 41.85C73.84 39.38 75.37 38.2 77.02 38.17ZM50.51 38.17C52.18 38.2 53.7 39.38 53.23 41.85C52.68 44.8 47.68 45.21 47.13 42.17C46.65 39.54 48.67 38.14 50.51 38.17ZM18.91 24.22C18.91 19.4 22.06 15.5 25.89 15.5C29.75 15.5 32.88 19.4 32.88 24.22C32.88 29.03 29.74 32.94 25.89 32.94C22.06 32.94 18.91 29.03 18.91 24.22ZM101.64 32.94C97.79 32.94 94.65 29.03 94.65 24.22C94.65 19.4 97.79 15.5 101.64 15.5C105.49 15.5 108.63 19.4 108.63 24.22C108.63 29.03 105.49 32.94 101.64 32.94Z" fill="#2F2F2F"/>
<path d="M63.4651 56C88.9126 56 106.267 81.4305 103.759 90.8108C101.262 100.209 83.7771 90.8108 63.4651 90.8108C43.203 90.8289 25.7285 100.227 23.2407 90.8108C20.7329 81.4124 38.0775 56 63.4651 56Z" fill="#ED6C30"/>
</svg>
