<svg width="63" height="63" viewBox="0 0 63 63" fill="none" xmlns="http://www.w3.org/2000/svg">
<path d="M46.8489 14.0652C38.6481 5.97826 25.3519 5.97826 17.1511 14.0652C15.204 15.9722 13.6568 18.2501 12.6005 20.7651C11.5442 23.28 11 25.9813 11 28.7101C11 31.439 11.5442 34.1402 12.6005 36.6552C13.6568 39.1702 15.204 41.4481 17.1511 43.3551L31.9987 58L46.8489 43.3551C48.796 41.4481 50.3432 39.1702 51.3995 36.6552C52.4558 34.1402 53 31.439 53 28.7101C53 25.9813 52.4558 23.28 51.3995 20.7651C50.3432 18.2501 48.796 15.9722 46.8489 14.0652ZM31.9987 35.6313C30.2451 35.6313 28.5992 34.9471 27.3575 33.7049C26.1283 32.4701 25.4379 30.7968 25.4379 29.0522C25.4379 27.3077 26.1283 25.6344 27.3575 24.3996C28.5965 23.1574 30.2451 22.4732 31.9987 22.4732C33.7523 22.4732 35.4008 23.1574 36.6399 24.3996C37.8691 25.6344 38.5594 27.3077 38.5594 29.0522C38.5594 30.7968 37.8691 32.4701 36.6399 33.7049C35.4008 34.9471 33.7523 35.6313 31.9987 35.6313Z" fill="#FFD52B"/>
<circle cx="31.9922" cy="29.0391" r="7.38281" fill="#FFD42A"/>
<path d="M27.9026 23.9435L31.0207 17.61C31.1115 17.4267 31.2511 17.2726 31.4239 17.1648C31.5967 17.0571 31.7958 17 31.9989 17C32.2021 17 32.4012 17.0571 32.574 17.1648C32.7467 17.2726 32.8863 17.4267 32.9771 17.61L36.0953 23.9435L43.0661 24.9652C43.2672 24.9933 43.4563 25.0779 43.612 25.2093C43.7677 25.3406 43.8837 25.5135 43.9466 25.7081C44.0096 25.9028 44.017 26.1113 43.9681 26.31C43.9191 26.5087 43.8158 26.6895 43.6698 26.8318L38.6265 31.7587L39.8171 38.7192C39.9695 39.6126 39.0334 40.2929 38.2328 39.8716L31.9989 36.5839L25.7638 39.8716C24.9645 40.2941 24.0283 39.6126 24.1807 38.718L25.3713 31.7575L20.328 26.8306C20.1828 26.6882 20.0801 26.5076 20.0315 26.3093C19.983 26.1109 19.9906 25.9028 20.0535 25.7086C20.1164 25.5145 20.232 25.3419 20.3873 25.2107C20.5425 25.0795 20.7312 24.9949 20.9317 24.9664L27.9026 23.9435Z" fill="white"/>
</svg>
