<svg width="63" height="63" viewBox="0 0 63 63" fill="none" xmlns="http://www.w3.org/2000/svg">
<path d="M46.8489 14.0652C38.6481 5.97826 25.3519 5.97826 17.1511 14.0652C15.204 15.9722 13.6568 18.2501 12.6005 20.7651C11.5442 23.28 11 25.9813 11 28.7101C11 31.439 11.5442 34.1402 12.6005 36.6552C13.6568 39.1702 15.204 41.4481 17.1511 43.3551L31.9987 58L46.8489 43.3551C48.796 41.4481 50.3432 39.1702 51.3995 36.6552C52.4559 34.1402 53 31.439 53 28.7101C53 25.9813 52.4559 23.28 51.3995 20.7651C50.3432 18.2501 48.796 15.9722 46.8489 14.0652ZM31.9987 35.6313C30.2451 35.6313 28.5992 34.9471 27.3575 33.7049C26.1283 32.4701 25.4379 30.7968 25.4379 29.0522C25.4379 27.3077 26.1283 25.6344 27.3575 24.3996C28.5965 23.1574 30.2451 22.4732 31.9987 22.4732C33.7523 22.4732 35.4008 23.1574 36.6399 24.3996C37.8691 25.6344 38.5594 27.3077 38.5594 29.0522C38.5594 30.7968 37.8691 32.4701 36.6399 33.7049C35.4008 34.9471 33.7523 35.6313 31.9987 35.6313Z" fill="#3C56FF"/>
<circle cx="31.9922" cy="29.0391" r="7.38281" fill="#3B56FF"/>
<path d="M35.75 20.75C35.75 21.7446 35.3549 22.6984 34.6517 23.4017C33.9484 24.1049 32.9946 24.5 32 24.5C31.0054 24.5 30.0516 24.1049 29.3483 23.4017C28.6451 22.6984 28.25 21.7446 28.25 20.75C28.25 19.7554 28.6451 18.8016 29.3483 18.0983C30.0516 17.3951 31.0054 17 32 17C32.9946 17 33.9484 17.3951 34.6517 18.0983C35.3549 18.8016 35.75 19.7554 35.75 20.75ZM43.25 21.5C43.25 22.2956 42.9339 23.0587 42.3713 23.6213C41.8087 24.1839 41.0456 24.5 40.25 24.5C39.4544 24.5 38.6913 24.1839 38.1287 23.6213C37.5661 23.0587 37.25 22.2956 37.25 21.5C37.25 20.7044 37.5661 19.9413 38.1287 19.3787C38.6913 18.8161 39.4544 18.5 40.25 18.5C41.0456 18.5 41.8087 18.8161 42.3713 19.3787C42.9339 19.9413 43.25 20.7044 43.25 21.5ZM23.75 24.5C24.5456 24.5 25.3087 24.1839 25.8713 23.6213C26.4339 23.0587 26.75 22.2956 26.75 21.5C26.75 20.7044 26.4339 19.9413 25.8713 19.3787C25.3087 18.8161 24.5456 18.5 23.75 18.5C22.9544 18.5 22.1913 18.8161 21.6287 19.3787C21.0661 19.9413 20.75 20.7044 20.75 21.5C20.75 22.2956 21.0661 23.0587 21.6287 23.6213C22.1913 24.1839 22.9544 24.5 23.75 24.5ZM26 27.875C26 26.84 26.84 26 27.875 26H36.125C37.16 26 38 26.84 38 27.875V35C38 36.5913 37.3679 38.1174 36.2426 39.2426C35.1174 40.3679 33.5913 41 32 41C30.4087 41 28.8826 40.3679 27.7574 39.2426C26.6321 38.1174 26 36.5913 26 35V27.875ZM24.5 27.875C24.5 27.1805 24.71 26.537 25.0685 26H21.875C20.84 26 20 26.84 20 27.875V33.5C19.9999 34.1422 20.1373 34.7769 20.4029 35.3616C20.6685 35.9463 21.0562 36.4674 21.5398 36.8898C22.0235 37.3122 22.592 37.6263 23.2071 37.8108C23.8222 37.9953 24.4697 38.046 25.106 37.9595C24.7054 37.0243 24.4992 36.0174 24.5 35V27.875ZM39.5 35C39.5 36.05 39.284 37.052 38.894 37.9595C39.092 37.9865 39.294 38 39.5 38C40.6935 38 41.8381 37.5259 42.682 36.682C43.5259 35.8381 44 34.6935 44 33.5V27.875C44 26.84 43.16 26 42.125 26H38.9315C39.2915 26.537 39.5 27.1805 39.5 27.875V35Z" fill="white"/>
</svg>
